<svg id="t1-ic1" xmlns="http://www.w3.org/2000/svg" xmlns:xlink="http://www.w3.org/1999/xlink" width="79.99" height="80" viewBox="0 0 79.99 80">
  <defs>
    <clipPath id="clip-path">
      <rect id="Rectangle_35864" data-name="Rectangle 35864" width="79.99" height="80" fill="none"/>
    </clipPath>
  </defs>
  <g id="Group_111529" data-name="Group 111529" clip-path="url(#clip-path)">
    <path id="Path_172368" data-name="Path 172368" d="M0,40Q0,57.665,0,75.328,0,80,4.638,80H75.365c3.057,0,4.625-1.56,4.625-4.6q0-35.409,0-70.819C79.99,1.565,78.435,0,75.437,0H4.543C1.59,0,0,1.576,0,4.509Q0,22.255,0,40" transform="translate(0 0)" fill="#fff"/>
    <path id="Path_172369" data-name="Path 172369" d="M0,40Q0,22.255,0,4.509C0,1.577,1.589,0,4.543,0H75.437c3,0,4.553,1.564,4.553,4.58q0,35.41,0,70.819c0,3.04-1.569,4.6-4.625,4.6H4.638Q0,80,0,75.328,0,57.665,0,40M77.324,18.72H2.667V75.258c0,1.763.314,2.076,2.085,2.076h70.48c1.779,0,2.092-.309,2.092-2.068V18.72Zm0-2.759c0-3.893,0-7.7,0-11.5,0-1.392-.4-1.8-1.769-1.8q-35.568,0-71.136,0c-1.328,0-1.748.415-1.749,1.733q-.005,5.415,0,10.83c0,.239.031.478.049.73Z" transform="translate(0 -0.001)"/>
    <path id="Path_172370" data-name="Path 172370" d="M86.662,84.267v.972q0,27.787,0,55.574c0,1.759-.313,2.068-2.092,2.068H14.09c-1.771,0-2.085-.312-2.085-2.075q0-27.745,0-55.491V84.267ZM49.246,126.881H79.4c1.541,0,1.932-.385,1.933-1.9q0-16.743,0-33.487c0-1.581-.368-1.945-1.967-1.945H19.31c-1.606,0-1.973.36-1.973,1.938q0,16.7,0,33.4c0,1.636.358,1.992,2.007,1.992h29.9m9.333,8h20.73a8.308,8.308,0,0,0,.832-.012,1.327,1.327,0,0,0-.03-2.644c-.248-.023-.5-.01-.749-.01H37.985a6.059,6.059,0,0,0-.831.02,1.29,1.29,0,0,0-1.159,1.461c.072.811.593,1.184,1.688,1.184q10.448,0,20.9,0m-27.907,0c0,.528-.018.943,0,1.355a1.261,1.261,0,0,0,1.3,1.319,1.229,1.229,0,0,0,1.341-1.276q.046-2.706,0-5.414a1.282,1.282,0,0,0-1.316-1.323,1.305,1.305,0,0,0-1.329,1.313c-.027.433,0,.869,0,1.358H29.666c-3.637,0-7.274-.006-10.91,0-.949,0-1.462.494-1.463,1.328s.513,1.324,1.46,1.33c2.11.013,4.22,0,6.33,0h5.589" transform="translate(-9.338 -65.548)" fill="#ba68c8"/>
    <path id="Path_172371" data-name="Path 172371" d="M86.659,25.3H12.054c-.018-.253-.049-.492-.049-.731q0-5.415,0-10.83c0-1.318.421-1.733,1.75-1.733q35.568,0,71.136,0c1.371,0,1.768.4,1.769,1.8,0,3.8,0,7.6,0,11.5M69.327,14.671q-6.5,0-12.994,0c-1.193,0-1.663.473-1.668,1.663-.007,1.583-.011,3.166,0,4.748a1.379,1.379,0,0,0,1.587,1.578q13.077.009,26.154,0c1.086,0,1.573-.5,1.581-1.583.012-1.527.005-3.054,0-4.581,0-1.414-.415-1.825-1.838-1.825q-6.413,0-12.827,0M22.666,18.65a4,4,0,1,0-4.025,4.012,4.028,4.028,0,0,0,4.025-4.012m17.34-3.978a4,4,0,1,0,3.988,3.96,4.028,4.028,0,0,0-3.988-3.96m-10.71,0a4,4,0,1,0,4.031,4,4.023,4.023,0,0,0-4.031-4" transform="translate(-9.335 -9.338)" fill="#fff505"/>
    <path id="Path_172372" data-name="Path 172372" d="M67.915,145.372h-29.9c-1.649,0-2.008-.355-2.008-1.991q0-16.7,0-33.4c0-1.577.367-1.938,1.973-1.938H98.032c1.6,0,1.967.363,1.967,1.945q0,16.743,0,33.487c0,1.516-.392,1.9-1.933,1.9H67.915m29.359-34.6H38.717v31.9H97.274Z" transform="translate(-28.008 -84.038)"/>
    <path id="Path_172373" data-name="Path 172373" d="M142.558,302.761q-10.448,0-20.9,0c-1.094,0-1.616-.372-1.687-1.184a1.29,1.29,0,0,1,1.159-1.461,6.058,6.058,0,0,1,.831-.02h41.377c.25,0,.5-.013.749.01a1.327,1.327,0,0,1,.03,2.644c-.275.028-.554.012-.832.012h-20.73" transform="translate(-93.318 -233.428)"/>
    <path id="Path_172374" data-name="Path 172374" d="M49.189,293.42H43.6c-2.11,0-4.22.009-6.33,0-.947-.006-1.461-.495-1.46-1.329s.514-1.325,1.463-1.328c3.637-.01,7.274,0,10.91,0H49.19c0-.49-.022-.925,0-1.358a1.305,1.305,0,0,1,1.329-1.313,1.282,1.282,0,0,1,1.316,1.323q.042,2.706,0,5.414a1.229,1.229,0,0,1-1.341,1.276,1.261,1.261,0,0,1-1.3-1.319c-.022-.413,0-.827,0-1.356" transform="translate(-27.855 -224.087)"/>
    <path id="Path_172375" data-name="Path 172375" d="M218.7,24.006q6.414,0,12.827,0c1.423,0,1.836.411,1.838,1.825,0,1.527.009,3.054,0,4.582-.008,1.085-.5,1.582-1.582,1.583q-13.077.009-26.154,0a1.379,1.379,0,0,1-1.587-1.578c-.012-1.583-.008-3.166,0-4.748.005-1.19.475-1.661,1.668-1.662q6.5-.007,12.994,0m-11.953,5.285h23.892V26.707H206.745Z" transform="translate(-158.705 -18.673)"/>
    <path id="Path_172376" data-name="Path 172376" d="M32.019,27.992a4,4,0,1,1-3.971-3.978,4.035,4.035,0,0,1,3.971,3.978M29.348,28a1.327,1.327,0,1,0-1.3,1.34,1.317,1.317,0,0,0,1.3-1.34" transform="translate(-18.688 -18.679)"/>
    <path id="Path_172377" data-name="Path 172377" d="M124.04,24.014a4,4,0,1,1-4.006,3.943,4.024,4.024,0,0,1,4.006-3.943m.025,5.326a1.327,1.327,0,1,0-1.361-1.274,1.324,1.324,0,0,0,1.361,1.274" transform="translate(-93.368 -18.679)"/>
    <path id="Path_172378" data-name="Path 172378" d="M76,24.014A4,4,0,1,1,72.043,28,4.024,4.024,0,0,1,76,24.014m1.36,4.018a1.327,1.327,0,1,0-1.328,1.308,1.317,1.317,0,0,0,1.328-1.308" transform="translate(-56.039 -18.679)"/>
    <path id="Path_172379" data-name="Path 172379" d="M106.765,152.235H48.208v-31.9h58.557ZM70.828,136.182c0,2.135.01,4.27-.006,6.406a1.512,1.512,0,0,0,.686,1.5,1.462,1.462,0,0,0,1.632-.18c3.332-2.091,6.672-4.169,10-6.263,1.366-.859,1.368-1.883.01-2.736q-5-3.139-10-6.261a1.473,1.473,0,0,0-1.632-.192,1.5,1.5,0,0,0-.694,1.492c.014,2.08.005,4.159.005,6.239" transform="translate(-37.499 -93.605)" fill="#fff"/>
    <rect id="Rectangle_35863" data-name="Rectangle 35863" width="23.892" height="2.584" transform="translate(48.039 8.034)" fill="#fff"/>
    <path id="Path_172380" data-name="Path 172380" d="M38.7,37.356a1.327,1.327,0,1,1-2.653-.019,1.327,1.327,0,0,1,2.653.019" transform="translate(-28.036 -28.035)" fill="#ba68c8"/>
    <path id="Path_172381" data-name="Path 172381" d="M133.411,38.7a1.327,1.327,0,1,1-.027-2.654,1.327,1.327,0,0,1,.027,2.654" transform="translate(-102.715 -28.035)" fill="#ba68c8"/>
    <path id="Path_172382" data-name="Path 172382" d="M86.683,37.386A1.327,1.327,0,1,1,85.4,36.04a1.325,1.325,0,0,1,1.286,1.346" transform="translate(-65.362 -28.033)" fill="#ba68c8"/>
    <path id="Path_172383" data-name="Path 172383" d="M150.012,163.984c0-2.08.008-4.159-.005-6.239a1.5,1.5,0,0,1,.694-1.492,1.473,1.473,0,0,1,1.632.192q5,3.136,10,6.261c1.358.853,1.356,1.877-.01,2.736-3.33,2.094-6.67,4.172-10,6.263a1.462,1.462,0,0,1-1.632.18,1.511,1.511,0,0,1-.686-1.5c.016-2.135.006-4.27.006-6.406m2.708,4.333,6.785-4.243-6.785-4.24Z" transform="translate(-116.683 -121.407)"/>
    <path id="Path_172384" data-name="Path 172384" d="M162.224,181.464v-8.483l6.785,4.24-6.785,4.243" transform="translate(-126.187 -134.554)" fill="#fff505"/>
  </g>
</svg>
