<svg xmlns="http://www.w3.org/2000/svg" xmlns:xlink="http://www.w3.org/1999/xlink" width="440.926" height="284.999" viewBox="0 0 440.926 284.999">
  <defs>
    <filter id="Path_172526" x="0" y="0" width="440.926" height="284.999" filterUnits="userSpaceOnUse">
      <feOffset dy="3" input="SourceAlpha"/>
      <feGaussianBlur stdDeviation="3" result="blur"/>
      <feFlood flood-opacity="0.161"/>
      <feComposite operator="in" in2="blur"/>
      <feComposite in="SourceGraphic"/>
    </filter>
  </defs>
  <g id="t1-info2" transform="translate(9 6)">
    <g transform="matrix(1, 0, 0, 1, -9, -6)" filter="url(#Path_172526)">
      <path id="Path_172526-2" data-name="Path 172526" d="M28,0H394.926a28,28,0,0,1,28,28V239a28,28,0,0,1-28,28H28A28,28,0,0,1,0,239V28A28,28,0,0,1,28,0Z" transform="translate(9 6)" fill="#fff"/>
    </g>
    <rect id="Rectangle_37245" data-name="Rectangle 37245" width="163.521" height="21.718" rx="8.5" transform="translate(17.885 232.976)" fill="#bfbfc1"/>
    <rect id="Rectangle_37249" data-name="Rectangle 37249" width="420.3" height="60.043" transform="translate(1.278 37.518)" fill="#bfbfc1"/>
    <rect id="Rectangle_37250" data-name="Rectangle 37250" width="387.084" height="2.555" transform="translate(17.885 178.043)" fill="#666"/>
    <rect id="Rectangle_37251" data-name="Rectangle 37251" width="387.084" height="2.555" transform="translate(17.885 185.708)" fill="#666"/>
    <rect id="Rectangle_37252" data-name="Rectangle 37252" width="387.084" height="2.555" transform="translate(17.885 193.373)" fill="#666"/>
    <rect id="Rectangle_37253" data-name="Rectangle 37253" width="387.084" height="2.555" transform="translate(17.885 201.039)" fill="#666"/>
    <rect id="Rectangle_37254" data-name="Rectangle 37254" width="387.084" height="2.555" transform="translate(17.885 208.703)" fill="#666"/>
    <rect id="Rectangle_37255" data-name="Rectangle 37255" width="387.084" height="2.555" transform="translate(17.885 216.369)" fill="#666"/>
    <rect id="Rectangle_37256" data-name="Rectangle 37256" width="198.013" height="42.158" transform="translate(17.885 116.723)" fill="#fff"/>
    <path id="Rectangle_37256_-_Outline" data-name="Rectangle 37256 - Outline" d="M-.75-.75H198.763V42.908H-.75ZM197.263.75H.75V41.408H197.263Z" transform="translate(17.885 116.723)" fill="#999"/>
    <path id="Rectángulo_37257" data-name="Rectángulo 37257" d="M24.141-1H396.713a25.121,25.121,0,0,1,25.141,25.141V240.858A25.121,25.121,0,0,1,396.713,266H24.141A25.121,25.121,0,0,1-1,240.858V24.141A25.121,25.121,0,0,1,24.141-1ZM396.713,263.444A22.612,22.612,0,0,0,419.3,240.858V24.141A22.612,22.612,0,0,0,396.713,1.555H24.141A22.612,22.612,0,0,0,1.555,24.141V240.858a22.612,22.612,0,0,0,22.586,22.586Z" transform="translate(1 1.47)"/>
    <path id="Path_172507" data-name="Path 172507" d="M183.434,448.251a4.216,4.216,0,0,1,1.52.2,1.878,1.878,0,0,1,.83.69,13.031,13.031,0,0,1,.766,1.341l3.092,5.915h-2.185l-3.385-6.8a.2.2,0,0,0-.294-.179h-1.533a.256.256,0,0,0-.166,0,.816.816,0,0,0-.128.179l-3.385,6.771H176.51l3.015-5.915c.2-.409.4-.767.562-1.06a2.862,2.862,0,0,1,.524-.69,1.776,1.776,0,0,1,.766-.345,5.348,5.348,0,0,1,1.277-.115Zm.715-.83,3.143-6.6h2.031l-2.8,5.736c-.2.447-.4.8-.549,1.1a2.2,2.2,0,0,1-.524.664,1.941,1.941,0,0,1-.767.345,5.987,5.987,0,0,1-1.2.1h-.83a4.358,4.358,0,0,1-1.52-.2,1.75,1.75,0,0,1-.856-.69,8.8,8.8,0,0,1-.715-1.341l-2.747-5.736H179l3.092,6.63.115.166a.23.23,0,0,0,.179,0h1.495a.281.281,0,0,0,.268-.14Z" transform="translate(48.983 -308.29)"/>
    <path id="Path_172508" data-name="Path 172508" d="M196.05,448.251a4.14,4.14,0,0,1,1.507.2,1.878,1.878,0,0,1,.83.69,10.819,10.819,0,0,1,.779,1.341l3.092,5.9h-2.185l-3.436-6.784a.538.538,0,0,0-.115-.179.333.333,0,0,0-.179,0h-1.507a.282.282,0,0,0-.166,0,.819.819,0,0,0-.128.179l-3.385,6.771H189.1l3.015-5.915.562-1.06a2.554,2.554,0,0,1,.537-.69,1.647,1.647,0,0,1,.754-.345,5.351,5.351,0,0,1,1.278-.115Zm.7-.83,3.143-6.6h2.044l-2.747,5.736-.549,1.1a2.221,2.221,0,0,1-.537.664,1.966,1.966,0,0,1-.754.345,6.182,6.182,0,0,1-1.2.1h-.843a4.358,4.358,0,0,1-1.52-.2,1.814,1.814,0,0,1-.856-.69,10.107,10.107,0,0,1-.715-1.341l-2.747-5.736h2.185l3.092,6.63a.677.677,0,0,0,.128.166h1.661a.256.256,0,0,0,.217-.14Z" transform="translate(52.476 -308.29)"/>
    <path id="Path_172509" data-name="Path 172509" d="M208.639,448.251a4.087,4.087,0,0,1,1.507.2,1.98,1.98,0,0,1,.843.69,13.015,13.015,0,0,1,.767,1.341l3.092,5.9h-2.185l-3.385-6.8a.4.4,0,0,0-.115-.179.332.332,0,0,0-.179,0h-1.495a.293.293,0,0,0-.179,0l-.115.179-3.385,6.771h-2.07l3.028-5.915c.2-.409.4-.766.562-1.06a2.326,2.326,0,0,1,.575-.664,1.775,1.775,0,0,1,.767-.345,5.271,5.271,0,0,1,1.214-.115Zm.715-.83,3.143-6.6h2.031l-2.8,5.736-.549,1.1a2.2,2.2,0,0,1-.524.664,2.12,2.12,0,0,1-.767.345,6.1,6.1,0,0,1-1.2.1h-.83a4.431,4.431,0,0,1-1.533-.2,1.813,1.813,0,0,1-.856-.69,10.217,10.217,0,0,1-.7-1.341l-2.7-5.736h2.185l3.092,6.63.128.166a.217.217,0,0,0,.166,0h1.507a.281.281,0,0,0,.2-.141Z" transform="translate(55.984 -308.29)"/>
  </g>
</svg>
