<svg xmlns="http://www.w3.org/2000/svg" width="130" height="125.111" viewBox="0 0 130 125.111">
  <g id="t1-ic2" transform="translate(9365 8908.87)">
    <path id="Path_172421" data-name="Path 172421" d="M-8915.511-8867l4.086,5.04-4.086,4.867-3.823-4.867Z" transform="translate(-329.472 -30.954)" fill="#f9f024"/>
    <path id="Path_172422" data-name="Path 172422" d="M-8915.511-8867l4.086,5.04-4.086,4.867-3.823-4.867Z" transform="translate(-349.026 -39.558)" fill="#f9f024"/>
    <path id="Path_172423" data-name="Path 172423" d="M-8915.511-8867l4.086,5.04-4.086,4.867-3.823-4.867Z" transform="translate(-420.157 71.315)" fill="#f9f024"/>
    <path id="Path_172420" data-name="Path 172420" d="M-9347.985-8800.5l2.737,3.911h109.894l2.542,2.543v61.854l-2.542,2.543h-1.955l-2.544-2.543v-54.36l-2.28-3H-9356.59l-2.679-2.68-1.232-4.359,3.26-3.39Z" transform="translate(-3.326 -80.116)" fill="#75baf1" opacity="0.6"/>
    <path id="Path_172419" data-name="Path 172419" d="M-9359.6-8769l4.084,2.432H-9242.1l3.321,3.322v59.771l-2.834,2.834h-113.727l-4.351-4.35Z" transform="translate(-3.925 -103.403)" fill="#be79ca" opacity="0.45"/>
    <path id="Path_172418" data-name="Path 172418" d="M-9254.4-8828.992l24.638-2.021,14.861-1.238,2.543,1.238.912,2.151v8.668h-95.619l-1.434-3.977Z" transform="translate(-41.768 -56.643)" fill="#d6b6db"/>
    <g id="_000000ff" data-name="#000000ff" transform="translate(-9365 -8908.87)">
      <path id="Path_172385" data-name="Path 172385" d="M374.422,16.112a1.255,1.255,0,0,1,1.585.821,9.286,9.286,0,0,0,1.715,3.827,7.506,7.506,0,0,0,2.732,1.47,1.252,1.252,0,0,1,.128,2.107c-.907.5-2.008.667-2.751,1.442-1.116,1.064-1.395,2.633-1.867,4.033a1.264,1.264,0,0,1-2.32.013c-.412-1.207-.555-2.563-1.424-3.559a7.741,7.741,0,0,0-3.066-1.851,1.243,1.243,0,0,1-.044-2.164,8.665,8.665,0,0,0,2.732-1.442c1.053-1.064,1.327-2.584,1.783-3.95a1.108,1.108,0,0,1,.8-.748m-1.577,7.243a8.8,8.8,0,0,1,1.981,2.1,8.584,8.584,0,0,1,1.872-2.117,8.547,8.547,0,0,1-1.89-2.193A8.3,8.3,0,0,1,372.845,23.355Z" transform="translate(-274.169 -16.053)"/>
      <path id="Path_172386" data-name="Path 172386" d="M448.425,48.88a1.279,1.279,0,0,1,1.89.733c.425,1.382.756,2.9,1.843,3.942a8.919,8.919,0,0,0,2.592,1.322,1.246,1.246,0,0,1,0,2.18,7.832,7.832,0,0,0-2.706,1.452c-1.048,1.061-1.322,2.573-1.775,3.934a1.269,1.269,0,0,1-2.328.042c-.409-1.215-.553-2.576-1.426-3.577-.769-.988-2.013-1.33-3.087-1.859a1.254,1.254,0,0,1-.149-2.078,14.255,14.255,0,0,0,2.62-1.3,6.643,6.643,0,0,0,1.8-3.491c.154-.464.237-1.051.722-1.3M447.145,56a8.846,8.846,0,0,1,1.979,2.1A8.429,8.429,0,0,1,451,55.979a8.741,8.741,0,0,1-1.893-2.19A8.431,8.431,0,0,1,447.145,56Z" transform="translate(-329.095 -40.186)"/>
      <path id="Path_172387" data-name="Path 172387" d="M89.177,90.025c8.5-.707,17.009-1.476,25.517-2.164a4.664,4.664,0,0,1,4.873,4.732q.012,3.723-.008,7.446c4.205.042,8.411-.01,12.616.026a4.666,4.666,0,0,1,4.5,4.766q.008,29.855,0,59.715a4.784,4.784,0,0,1-1.65,3.88,4.861,4.861,0,0,1-5.048.673,7.312,7.312,0,0,1-.469,3.473,4.7,4.7,0,0,1-4.367,2.623q-55.936-.008-111.867,0a6.579,6.579,0,0,1-6.015-3.89,10.677,10.677,0,0,1-.574-4.685q0-31.795,0-63.592a6.613,6.613,0,0,1,4.242-6.286c1.658-.673,3.47-.3,5.2-.477,20.172-1.7,40.341-3.465,60.515-5.16a1.487,1.487,0,0,1,1.619,1.176c-.172.493-.31,1.137-.892,1.288a12.331,12.331,0,0,1-2.1.271q-26.136,2.225-52.274,4.443c.3.587.584,1.178.871,1.773.873,0,1.747.01,2.62-.005q15.256.012,30.517-.005,29.972.043,59.945.013c-.008-2.414.01-4.829,0-7.243a2.251,2.251,0,0,0-.8-1.929,2.7,2.7,0,0,0-2-.383c-8.161.717-16.321,1.395-24.479,2.1a14,14,0,0,1-2.779.125c-.48-.089-.7-.563-.923-.941a1.353,1.353,0,0,1,.826-1.491,16.736,16.736,0,0,1,2.37-.269M12.83,98.949a3.953,3.953,0,0,0,.443,7.882q55.924.008,111.851.005a4.687,4.687,0,0,1,4.847,4.5q.035,26.6.008,53.2a2.269,2.269,0,0,0,.634,1.8,2.044,2.044,0,0,0,2.844-.018,2.309,2.309,0,0,0,.615-1.789q-.016-29.855-.008-59.707a2.057,2.057,0,0,0-2.143-2.164q-54.5-.02-108.994-.008a1.419,1.419,0,0,1-1.57-1.473,2.416,2.416,0,0,0-2.323-2.25c-2.068-.016-4.138-.042-6.205.013m-3.535,9.2q.023,30.277.013,60.56a3.978,3.978,0,0,0,3.966,3.877q55.948.008,111.9,0a2.1,2.1,0,0,0,2.206-2.3q0-29.347-.005-58.7a2.085,2.085,0,0,0-2.245-2.146q-55.924-.012-111.848,0A7.069,7.069,0,0,1,9.3,108.147Z" transform="translate(-6.684 -69.129)"/>
      <path id="Path_172388" data-name="Path 172388" d="M290.66,99.957a1.472,1.472,0,0,1,1.129-1.405,1.446,1.446,0,0,1,1.606,1.178c-.149.579-.407,1.259-1.085,1.366C291.51,101.325,290.895,100.64,290.66,99.957Z" transform="translate(-216.622 -77.019)"/>
      <path id="Path_172389" data-name="Path 172389" d="M27.644,139.415c1.444-.12,2.9-.01,4.344-.055.66.01,1.528-.083,1.9.6a1.3,1.3,0,0,1-1.139,2c-1.726,0-3.46.086-5.18-.05A1.3,1.3,0,0,1,27.644,139.415Z" transform="translate(-21.466 -107.209)"/>
      <path id="Path_172390" data-name="Path 172390" d="M399.6,185.755a1.294,1.294,0,0,1,2.057,1.176c-.216.972-.623,1.89-.912,2.842-.222.584-.349,1.335-1,1.6a1.294,1.294,0,0,1-1.807-1.332c.222-.988.633-1.919.928-2.886A2.91,2.91,0,0,1,399.6,185.755Z" transform="translate(-295.918 -141.314)"/>
      <path id="Path_172391" data-name="Path 172391" d="M45.667,198.7a2.505,2.505,0,0,1,1.241-.193c8.161.018,16.321-.01,24.482.016a1.3,1.3,0,0,1,1.116,2c-.318.584-1.043.613-1.622.6-8.161-.018-16.321.018-24.482-.018A1.32,1.32,0,0,1,45.667,198.7Z" transform="translate(-35.082 -150.94)"/>
      <path id="Path_172392" data-name="Path 172392" d="M356.686,198.69a3.33,3.33,0,0,1,1.47-.18c1.911.031,3.822-.034,5.733.029a1.306,1.306,0,0,1,.782,2.169c-.456.516-1.207.391-1.82.42-1.877-.034-3.754.044-5.629-.034A1.316,1.316,0,0,1,356.686,198.69Z" transform="translate(-264.997 -150.94)"/>
      <path id="Path_172393" data-name="Path 172393" d="M418.058,198.769c.49-.375,1.15-.229,1.726-.266,1.9.039,3.807-.052,5.707.042a1.316,1.316,0,0,1,.615,2.216c-.508.48-1.264.321-1.893.36-1.872-.042-3.749.065-5.616-.05A1.321,1.321,0,0,1,418.058,198.769Z" transform="translate(-310.455 -150.933)"/>
      <path id="Path_172394" data-name="Path 172394" d="M297.743,241.6a1.346,1.346,0,0,1,2.31-.031,4.756,4.756,0,0,1,.175,1.611,4.326,4.326,0,0,1,3.53,2.206,1.3,1.3,0,0,1-1.21,1.8c-1.019.018-1.309-1.4-2.349-1.353a21.84,21.84,0,0,0-2.863.021,1.039,1.039,0,0,0-.081,1.976c1.6.263,3.382-.308,4.842.6a3.664,3.664,0,0,1,1.322,4.844,3.86,3.86,0,0,1-3.183,1.953c-.068.6.1,1.322-.336,1.82a1.346,1.346,0,0,1-2.18-.3,6.131,6.131,0,0,1-.136-1.515,4.284,4.284,0,0,1-3.514-1.867,1.306,1.306,0,0,1,1.186-1.841c.853,0,1.262,1.032,2.12,1.045a20,20,0,0,0,3.186-.049,1.04,1.04,0,0,0-.094-1.974c-1.593-.2-3.358.31-4.8-.607a3.66,3.66,0,0,1-1.33-4.706,3.819,3.819,0,0,1,3.246-2.06A5.221,5.221,0,0,1,297.743,241.6Z" transform="translate(-219.048 -182.298)"/>
      <path id="Path_172395" data-name="Path 172395" d="M46.158,250.2c18.052-.083,36.112-.005,54.167-.039.673-.029,1.57,0,1.848.756a1.309,1.309,0,0,1-1.33,1.854q-27.113.008-54.224,0a1.482,1.482,0,0,1-1.228-.417A1.312,1.312,0,0,1,46.158,250.2Z" transform="translate(-35.065 -189.119)"/>
      <path id="Path_172396" data-name="Path 172396" d="M348.6,251.075a23.734,23.734,0,0,1,2.581-1.309,1.283,1.283,0,0,1,1.8,1.259c-.008,2.607.07,5.222-.042,7.824a1.3,1.3,0,0,1-2.5.005c-.12-1.908-.021-3.827-.044-5.738-.55.172-1.173.5-1.713.12A1.28,1.28,0,0,1,348.6,251.075Z" transform="translate(-259.046 -188.738)"/>
      <path id="Path_172397" data-name="Path 172397" d="M379.119,249.8a3.8,3.8,0,0,1,4.2,1.7c.837,1.348.513,3.006.553,4.505a3.786,3.786,0,0,1-7.527.537,25.991,25.991,0,0,1-.039-3.311,3.794,3.794,0,0,1,2.813-3.428m.3,2.654c-.527.295-.532.949-.529,1.473a17.334,17.334,0,0,0,.07,2.44,1.2,1.2,0,0,0,2.276-.089,18.842,18.842,0,0,0,0-3.118A1.206,1.206,0,0,0,379.416,252.453Z" transform="translate(-279.914 -188.763)"/>
      <path id="Path_172398" data-name="Path 172398" d="M415.256,249.912a3.8,3.8,0,0,1,4.49,1.528c.886,1.358.553,3.058.589,4.589a3.786,3.786,0,0,1-7.571-.013c.023-1.366-.211-2.816.334-4.112a3.815,3.815,0,0,1,2.159-1.992m.709,2.505c-.686.313-.607,1.158-.615,1.783a9.688,9.688,0,0,0,.123,2.284,1.193,1.193,0,0,0,2.224-.24,19.6,19.6,0,0,0,0-3.056A1.2,1.2,0,0,0,415.965,252.418Z" transform="translate(-306.868 -188.772)"/>
      <path id="Path_172399" data-name="Path 172399" d="M45.884,277.862a10.338,10.338,0,0,1,2.049-.091q26.46.016,52.921.008a1.311,1.311,0,0,1,1.33,1.846,1.46,1.46,0,0,1-1.6.759q-26.988-.012-53.979,0a1.565,1.565,0,0,1-1.132-.336A1.34,1.34,0,0,1,45.884,277.862Z" transform="translate(-35.07 -209.531)"/>
      <path id="Path_172400" data-name="Path 172400" d="M347.955,297.995a12.841,12.841,0,0,1,2.328-.089c7.292.013,14.587-.018,21.882.013a1.3,1.3,0,0,1,1.116,1.981c-.313.6-1.056.634-1.648.618-7.733-.021-15.466.018-23.2-.018A1.31,1.31,0,0,1,347.955,297.995Z" transform="translate(-258.407 -224.415)"/>
      <path id="Path_172401" data-name="Path 172401" d="M84.164,304.857a1.285,1.285,0,0,1,2.258.759c.063,2.073,0,4.145.026,6.221,1.629-1.59,3.194-3.251,4.852-4.813a1.278,1.278,0,0,1,2.1.946c.05,1.729,0,3.46.018,5.191,2.3.026,4.607-.05,6.906.034a1.292,1.292,0,0,1,.016,2.545c-2.711.063-5.428.021-8.14.021a1.266,1.266,0,0,1-1.353-1.051c-.094-1.178-.013-2.362-.036-3.543-1.588,1.564-3.139,3.168-4.74,4.716a1.291,1.291,0,0,1-2.187-.626c-.109-2-.008-4.007-.044-6.01-2.636,3.09-5.248,6.2-7.895,9.276a1.31,1.31,0,0,1-2.247-.4c-.295-.66.229-1.246.626-1.713C77.617,312.572,80.86,308.687,84.164,304.857Z" transform="translate(-56.161 -229.223)"/>
      <path id="Path_172402" data-name="Path 172402" d="M330.706,331.982c2.618-1.463,5.233-2.936,7.855-4.385a1.293,1.293,0,0,1,1.937.751,19.488,19.488,0,0,1,.06,2.469c1.713-1.051,3.384-2.169,5.1-3.209a1.285,1.285,0,0,1,1.94.72,18.652,18.652,0,0,1,.065,2.474c1.684-1.051,3.329-2.164,5.021-3.2a1.276,1.276,0,0,1,1.966.97c.036,1.643.07,3.293-.018,4.933a1.314,1.314,0,0,1-2.469.2,14.23,14.23,0,0,1-.091-2.625c-1.676,1.059-3.327,2.164-5.019,3.2a1.287,1.287,0,0,1-1.935-.725,18.836,18.836,0,0,1-.063-2.485c-1.687,1.051-3.355,2.133-5.047,3.173a1.3,1.3,0,0,1-2-.686,20.722,20.722,0,0,1-.06-2.638c-2.008,1.119-4.007,2.253-6.023,3.353a1.3,1.3,0,1,1-1.225-2.281Z" transform="translate(-245.631 -246.217)"/>
      <path id="Path_172403" data-name="Path 172403" d="M48.792,368.8a3.608,3.608,0,0,1,1.734-.224c12.512.026,25.026-.023,37.538.023a1.308,1.308,0,0,1,.993,2.1c-.331.5-.97.5-1.5.493-12.687-.018-25.373.013-38.06-.016A1.313,1.313,0,0,1,48.792,368.8Z" transform="translate(-37.412 -276.67)"/>
      <path id="Path_172404" data-name="Path 172404" d="M303.5,368.751a2.692,2.692,0,0,1,1.238-.18q17.211.016,34.42.005a1.335,1.335,0,0,1,1.494.889,1.287,1.287,0,0,1-1.246,1.708c-11.555.026-23.11,0-34.665.016a2.063,2.063,0,0,1-1.444-.331A1.361,1.361,0,0,1,303.5,368.751Z" transform="translate(-225.663 -276.661)"/>
      <path id="Path_172405" data-name="Path 172405" d="M100.982,440.283a1.255,1.255,0,0,1,1.669.662c.472,1.371.743,2.9,1.791,3.976a8.02,8.02,0,0,0,2.709,1.439,1.245,1.245,0,0,1,.034,2.159,9.312,9.312,0,0,0-2.594,1.324,7.027,7.027,0,0,0-1.716,3.434c-.154.433-.222.986-.667,1.233a1.27,1.27,0,0,1-1.88-.584c-.409-1.241-.571-2.644-1.5-3.64a8.285,8.285,0,0,0-2.975-1.747,1.249,1.249,0,0,1-.141-2.107,13,13,0,0,0,2.594-1.285,6.606,6.606,0,0,0,1.789-3.46c.162-.529.292-1.2.892-1.405m.519,4.982a8.607,8.607,0,0,1-1.955,2.211,8.867,8.867,0,0,1,1.966,2.091,8.971,8.971,0,0,1,1.882-2.112A8.5,8.5,0,0,1,101.5,445.265Z" transform="translate(-72.119 -329.603)"/>
    </g>
    <g id="_ffcbc2ff" data-name="#ffcbc2ff" transform="translate(-9345.184 -8885.316)">
      <path id="Path_172410" data-name="Path 172410" d="M321.544,106.748c1.517-.1,3.03-.323,4.552-.349a1.283,1.283,0,0,1,1.048,1.929,1.518,1.518,0,0,1-1.311.675q-14.99,1.271-29.975,2.558a1.474,1.474,0,0,1-1.669-.68A1.3,1.3,0,0,1,295.324,109C304.06,108.226,312.8,107.5,321.544,106.748Z" transform="translate(-238.943 -106.398)" fill="#be79ca"/>
      <path id="Path_172411" data-name="Path 172411" d="M92.931,121.587q20.2-1.74,40.4-3.462c.5-.008,1.092-.1,1.491.276a1.309,1.309,0,0,1-.138,2.067,5.761,5.761,0,0,1-1.872.344c-6.536.5-13.059,1.173-19.6,1.6q-15.26.035-30.517.005C86.108,122.192,89.518,121.871,92.931,121.587Z" transform="translate(-82.69 -115.056)" fill="#be79ca"/>
    </g>
    <g id="_ffffffff" data-name="#ffffffff" transform="translate(-9359.816 -8863.01)">
      <path id="Path_172416" data-name="Path 172416" d="M26.591,193.54a1.324,1.324,0,0,1,1.126-1.562,1.338,1.338,0,0,1,1.481,1.538q0,21.4,0,42.792c.031,2.31-.078,4.625.063,6.935q48.509-.039,97.019-.018c.683-.026,1.6.1,1.776.9a1.337,1.337,0,0,1-1.483,1.721q-48.642,0-97.29.008c-.86-.044-2.075.224-2.539-.735a11.032,11.032,0,0,1-.156-2.829Q26.6,217.915,26.591,193.54Z" transform="translate(-26.571 -191.96)" fill="#fff"/>
      <path id="Path_172417" data-name="Path 172417" d="M426.647,388.7a13.4,13.4,0,0,1,4.086-.13c1.3.1,1.374,2.19.154,2.485a22.622,22.622,0,0,1-3.783.026A1.309,1.309,0,0,1,426.647,388.7Z" transform="translate(-321.901 -337.243)" fill="#fff"/>
    </g>
  </g>
</svg>
