<svg xmlns="http://www.w3.org/2000/svg" xmlns:xlink="http://www.w3.org/1999/xlink" width="440.926" height="284.999" viewBox="0 0 440.926 284.999">
  <defs>
    <filter id="Rectangle_37260" x="0" y="0" width="440.926" height="284.999" filterUnits="userSpaceOnUse">
      <feOffset dy="3" input="SourceAlpha"/>
      <feGaussianBlur stdDeviation="3" result="blur"/>
      <feFlood flood-opacity="0.161"/>
      <feComposite operator="in" in2="blur"/>
      <feComposite in="SourceGraphic"/>
    </filter>
  </defs>
  <g id="t1-info1" transform="translate(9 6)">
    <g transform="matrix(1, 0, 0, 1, -9, -6)" filter="url(#Rectangle_37260)">
      <rect id="Rectangle_37260-2" data-name="Rectangle 37260" width="422.926" height="266.999" rx="28" transform="translate(9 6)" fill="#fff"/>
    </g>
    <path id="Rectángulo_37246" data-name="Rectángulo 37246" d="M24.141-1H396.713a25.121,25.121,0,0,1,25.141,25.141V240.858A25.121,25.121,0,0,1,396.713,266H24.141A25.122,25.122,0,0,1-1,240.858V24.141A25.121,25.121,0,0,1,24.141-1ZM396.713,263.444A22.612,22.612,0,0,0,419.3,240.858V24.141A22.612,22.612,0,0,0,396.713,1.555H24.141A22.612,22.612,0,0,0,1.555,24.141V240.858a22.612,22.612,0,0,0,22.586,22.586Z" transform="translate(1 1.47)"/>
    <path id="Path_172446" data-name="Path 172446" d="M31.238,239.1a3.386,3.386,0,0,1,1.278.179,1.508,1.508,0,0,1,.677.562,9.825,9.825,0,0,1,.639,1.1l2.555,4.855H34.5l-2.772-5.583a.922.922,0,0,0-.089-.141.269.269,0,0,0-.153,0H30.2a.179.179,0,0,0-.141,0,.447.447,0,0,0-.1.141l-2.734,5.57H25.54l2.478-4.854c.166-.332.319-.626.46-.869a2.044,2.044,0,0,1,.434-.562,1.507,1.507,0,0,1,.626-.294,5.11,5.11,0,0,1,1-.089Zm.575-.677,2.555-5.429h1.674L33.793,237.7c-.166.37-.319.664-.447.907a1.7,1.7,0,0,1-.434.537,1.5,1.5,0,0,1-.626.281,4.225,4.225,0,0,1-.984.089h-.69a3.653,3.653,0,0,1-1.278-.166,1.52,1.52,0,0,1-.7-.562,8.315,8.315,0,0,1-.575-1.1L25.757,233h1.789l2.555,5.442.1.141a.2.2,0,0,0,.141,0h1.278a.23.23,0,0,0,.153-.166Z" transform="translate(7.088 -1.866)"/>
    <path id="Path_172447" data-name="Path 172447" d="M39.9,239.1a3.386,3.386,0,0,1,1.278.179,1.61,1.61,0,0,1,.69.562,10.083,10.083,0,0,1,.626,1.1l2.555,4.855H43.259l-2.785-5.583a.448.448,0,0,0-.089-.141.269.269,0,0,0-.153,0H38.954a.2.2,0,0,0-.141,0l-.1.141-2.785,5.57H34.24l2.478-4.854c.166-.332.332-.626.46-.869a2.312,2.312,0,0,1,.434-.562,1.508,1.508,0,0,1,.626-.294,5.11,5.11,0,0,1,1-.089Zm.588-.677,2.555-5.429H44.7L42.416,237.7c-.179.37-.332.664-.46.907a1.7,1.7,0,0,1-.434.537,1.418,1.418,0,0,1-.626.281,4.163,4.163,0,0,1-.984.089h-.69a3.577,3.577,0,0,1-1.278-.166,1.456,1.456,0,0,1-.7-.562,8.163,8.163,0,0,1-.588-1.1L34.457,233h1.8l2.555,5.442.1.141a.2.2,0,0,0,.141,0h1.278a.23.23,0,0,0,.153-.166Z" transform="translate(9.502 -1.866)"/>
    <path id="Path_172448" data-name="Path 172448" d="M48.6,239.1a3.347,3.347,0,0,1,1.278.179,1.469,1.469,0,0,1,.69.562,8.316,8.316,0,0,1,.626,1.1l2.555,4.855H51.959l-2.785-5.583a.294.294,0,0,0-.089-.141.243.243,0,0,0-.153,0H47.654a.2.2,0,0,0-.141,0l-.1.141-2.772,5.57h-1.7l2.478-4.854.46-.869a2.312,2.312,0,0,1,.434-.562,1.584,1.584,0,0,1,.626-.294,5.312,5.312,0,0,1,1-.089Zm.588-.677,2.555-5.429h1.674l-2.3,4.714c-.179.37-.332.664-.46.907a1.864,1.864,0,0,1-.422.537,1.494,1.494,0,0,1-.626.281,4.279,4.279,0,0,1-1,.09h-.677a3.6,3.6,0,0,1-1.278-.166,1.52,1.52,0,0,1-.7-.562,8.162,8.162,0,0,1-.588-1.1L43.17,233h1.789l2.555,5.442a.919.919,0,0,0,.089.141.2.2,0,0,0,.141,0h1.278a.23.23,0,0,0,.166-.166Z" transform="translate(11.916 -1.866)"/>
    <path id="Path_172449" data-name="Path 172449" d="M57.3,239.1a3.347,3.347,0,0,1,1.278.179,1.469,1.469,0,0,1,.69.562,9.828,9.828,0,0,1,.639,1.1l2.555,4.855H60.672l-2.785-5.583a.294.294,0,0,0-.089-.141.2.2,0,0,0-.141,0H56.38a.2.2,0,0,0-.141,0l-.1.141-2.759,5.57H51.64l2.478-4.854c.179-.332.332-.626.473-.869a2.019,2.019,0,0,1,.422-.562,1.673,1.673,0,0,1,.626-.294,5.315,5.315,0,0,1,1-.089Zm.588-.677,2.555-5.429h1.674l-2.3,4.714c-.179.37-.319.664-.447.907a1.89,1.89,0,0,1-.434.537,1.5,1.5,0,0,1-.626.281,4.227,4.227,0,0,1-.984.089h-.69a3.6,3.6,0,0,1-1.278-.166,1.52,1.52,0,0,1-.7-.562,8.164,8.164,0,0,1-.588-1.1L51.87,233h1.789l2.555,5.442.1.141a.179.179,0,0,0,.141,0h1.278a.23.23,0,0,0,.153-.166Z" transform="translate(14.33 -1.866)"/>
    <path id="Path_172450" data-name="Path 172450" d="M66.009,239.1a3.386,3.386,0,0,1,1.277.179,1.508,1.508,0,0,1,.677.562,8.172,8.172,0,0,1,.639,1.1l2.555,4.855H69.305l-2.772-5.583a.448.448,0,0,0-.089-.141.268.268,0,0,0-.153,0H65.013a.179.179,0,0,0-.141,0,.447.447,0,0,0-.1.141l-2.734,5.57H60.35l2.478-4.854c.166-.332.319-.626.46-.869a2.044,2.044,0,0,1,.434-.562,1.507,1.507,0,0,1,.626-.294,5.11,5.11,0,0,1,1-.089Zm.575-.677,2.555-5.429h1.674l-2.3,4.714c-.166.37-.319.664-.447.907a1.7,1.7,0,0,1-.434.537,1.5,1.5,0,0,1-.626.281,4.227,4.227,0,0,1-.984.089h-.69a3.653,3.653,0,0,1-1.278-.166,1.52,1.52,0,0,1-.7-.562,8.312,8.312,0,0,1-.575-1.1L60.567,233h1.789l2.555,5.442.1.141a.2.2,0,0,0,.141,0h1.278a.23.23,0,0,0,.153-.166Z" transform="translate(16.748 -1.866)"/>
    <path id="Path_172451" data-name="Path 172451" d="M74.709,239.094a3.386,3.386,0,0,1,1.277.179,1.61,1.61,0,0,1,.69.562,10.081,10.081,0,0,1,.626,1.1l2.555,4.854H78.069l-2.785-5.583a.447.447,0,0,0-.089-.14.268.268,0,0,0-.153,0H73.764a.2.2,0,0,0-.141,0l-.1.14-2.785,5.57H69.05l2.478-4.855c.166-.332.332-.626.46-.869a2.313,2.313,0,0,1,.434-.562,1.508,1.508,0,0,1,.626-.294,5.108,5.108,0,0,1,1-.089Zm.588-.677L77.929,233h1.661L77.3,237.714c-.179.37-.332.664-.46.907a1.7,1.7,0,0,1-.434.537,1.418,1.418,0,0,1-.626.281,4.164,4.164,0,0,1-.984.089h-.7a3.6,3.6,0,0,1-1.278-.166,1.456,1.456,0,0,1-.7-.562,8.162,8.162,0,0,1-.588-1.1L69.267,233h1.8l2.555,5.442.1.141a.2.2,0,0,0,.141,0h1.278a.23.23,0,0,0,.153-.166Z" transform="translate(19.162 -1.863)"/>
    <path id="Path_172452" data-name="Path 172452" d="M83.409,239.1a3.347,3.347,0,0,1,1.278.179,1.469,1.469,0,0,1,.69.562,9.828,9.828,0,0,1,.639,1.1l2.555,4.855H86.782L84,240.208a.294.294,0,0,0-.089-.141.217.217,0,0,0-.153,0H82.477a.2.2,0,0,0-.141,0l-.1.141-2.785,5.57h-1.7l2.478-4.854.46-.869a2.312,2.312,0,0,1,.434-.562,1.584,1.584,0,0,1,.626-.294,5.312,5.312,0,0,1,1-.089Zm.588-.677,2.555-5.429h1.737l-2.3,4.714c-.179.37-.332.664-.46.907a1.864,1.864,0,0,1-.422.537,1.5,1.5,0,0,1-.652.243,4.278,4.278,0,0,1-1,.089h-.677a3.6,3.6,0,0,1-1.278-.166,1.52,1.52,0,0,1-.7-.562,8.167,8.167,0,0,1-.588-1.1L77.98,233h1.789l2.555,5.442a.922.922,0,0,0,.089.141.2.2,0,0,0,.141,0h1.278a.23.23,0,0,0,.166-.166Z" transform="translate(21.576 -1.866)"/>
    <path id="Path_172453" data-name="Path 172453" d="M95.129,239.1a3.386,3.386,0,0,1,1.277.179,1.508,1.508,0,0,1,.677.562,8.163,8.163,0,0,1,.639,1.1l2.555,4.855H98.425l-2.772-5.583a.448.448,0,0,0-.089-.141.269.269,0,0,0-.153,0H94.133a.179.179,0,0,0-.141,0,.447.447,0,0,0-.1.141l-2.734,5.57H89.47l2.478-4.854c.166-.332.319-.626.46-.869a2.044,2.044,0,0,1,.434-.562,1.508,1.508,0,0,1,.626-.294,5.11,5.11,0,0,1,1-.089Zm.575-.677,2.555-5.429h1.674l-2.3,4.714c-.166.37-.319.664-.447.907a1.7,1.7,0,0,1-.434.537,1.494,1.494,0,0,1-.626.281,4.225,4.225,0,0,1-.984.089h-.69a3.653,3.653,0,0,1-1.278-.166,1.52,1.52,0,0,1-.7-.562,8.317,8.317,0,0,1-.575-1.1L89.687,233h1.737l2.555,5.442.1.141a.2.2,0,0,0,.141,0H95.5a.23.23,0,0,0,.2-.166Z" transform="translate(24.828 -1.866)"/>
    <path id="Path_172454" data-name="Path 172454" d="M103.829,239.1a3.386,3.386,0,0,1,1.278.179,1.508,1.508,0,0,1,.677.562,8.163,8.163,0,0,1,.639,1.1l2.555,4.855h-1.8l-2.836-5.583a.448.448,0,0,0-.089-.141.269.269,0,0,0-.153,0H102.82a.2.2,0,0,0-.141,0l-.1.141-2.721,5.57H98.17l2.478-4.854c.166-.332.332-.626.46-.869a2.044,2.044,0,0,1,.434-.562,1.508,1.508,0,0,1,.626-.294,5.11,5.11,0,0,1,1-.089Zm.588-.677,2.555-5.429h1.674l-2.287,4.714c-.179.37-.332.664-.46.907a1.7,1.7,0,0,1-.434.537,1.418,1.418,0,0,1-.626.281,4.163,4.163,0,0,1-.984.089h-.69a3.526,3.526,0,0,1-1.278-.166,1.558,1.558,0,0,1-.715-.562,10.221,10.221,0,0,1-.575-1.1L98.387,233h1.789l2.555,5.442.1.141a.2.2,0,0,0,.141,0h1.278C104.34,238.6,104.34,238.534,104.417,238.419Z" transform="translate(27.243 -1.866)"/>
    <path id="Path_172455" data-name="Path 172455" d="M112.529,239.1a3.347,3.347,0,0,1,1.278.179,1.533,1.533,0,0,1,.69.562,8.317,8.317,0,0,1,.626,1.1l2.555,4.855h-1.788l-2.785-5.583a.294.294,0,0,0-.089-.141.269.269,0,0,0-.153,0h-1.278a.2.2,0,0,0-.141,0l-.1.141-2.772,5.57h-1.7l2.478-4.854.46-.869a2.312,2.312,0,0,1,.434-.562,1.584,1.584,0,0,1,.626-.294,5.312,5.312,0,0,1,1-.089Zm.588-.677,2.555-5.429h1.674l-2.3,4.714c-.179.37-.332.664-.46.907a1.7,1.7,0,0,1-.434.537,1.367,1.367,0,0,1-.613.281,4.279,4.279,0,0,1-1,.09h-.677a3.6,3.6,0,0,1-1.278-.166,1.456,1.456,0,0,1-.7-.562,8.163,8.163,0,0,1-.588-1.1L107.036,233h1.8l2.555,5.442.1.141a.2.2,0,0,0,.141,0h1.278A.23.23,0,0,0,113.117,238.419Z" transform="translate(29.658 -1.866)"/>
    <path id="Path_172456" data-name="Path 172456" d="M121.229,239.1a3.347,3.347,0,0,1,1.278.179,1.469,1.469,0,0,1,.69.562,9.822,9.822,0,0,1,.639,1.1l2.555,4.855H124.6l-2.785-5.583a.294.294,0,0,0-.089-.141.2.2,0,0,0-.141,0H120.31a.2.2,0,0,0-.141,0l-.1.141-2.8,5.57h-1.7l2.478-4.854c.179-.332.332-.626.473-.869a1.827,1.827,0,0,1,.434-.562,1.519,1.519,0,0,1,.613-.294,5.314,5.314,0,0,1,1-.089Zm.588-.677,2.555-5.429h1.674l-2.3,4.714c-.179.37-.319.664-.447.907a1.89,1.89,0,0,1-.434.537,1.494,1.494,0,0,1-.626.281,4.226,4.226,0,0,1-.984.089h-.69a3.6,3.6,0,0,1-1.278-.166,1.52,1.52,0,0,1-.7-.562,8.164,8.164,0,0,1-.588-1.1L115.8,233h1.789l2.555,5.442.1.141a.179.179,0,0,0,.141,0h1.277a.23.23,0,0,0,.153-.166Z" transform="translate(32.071 -1.866)"/>
    <path id="Path_172457" data-name="Path 172457" d="M129.939,239.1a3.386,3.386,0,0,1,1.278.179,1.508,1.508,0,0,1,.677.562,8.17,8.17,0,0,1,.639,1.1l2.555,4.855h-1.8l-2.772-5.583a.447.447,0,0,0-.089-.141.269.269,0,0,0-.153,0h-1.277a.179.179,0,0,0-.141,0,.448.448,0,0,0-.1.141l-2.785,5.57H124.28l2.478-4.854c.166-.332.319-.626.46-.869a2.045,2.045,0,0,1,.434-.562,1.508,1.508,0,0,1,.626-.294,5.11,5.11,0,0,1,1-.089Zm.575-.677,2.555-5.429h1.673l-2.3,4.714c-.166.37-.319.664-.447.907a1.7,1.7,0,0,1-.434.537,1.5,1.5,0,0,1-.626.281,4.227,4.227,0,0,1-.984.089h-.69a3.653,3.653,0,0,1-1.277-.166,1.52,1.52,0,0,1-.7-.562,8.317,8.317,0,0,1-.575-1.1L124.5,233h1.789l2.555,5.442.1.141a.2.2,0,0,0,.141,0h1.277A.23.23,0,0,0,130.514,238.419Z" transform="translate(34.489 -1.866)"/>
    <path id="Path_172458" data-name="Path 172458" d="M138.634,239.1a3.386,3.386,0,0,1,1.278.179,1.533,1.533,0,0,1,.69.562,10.079,10.079,0,0,1,.626,1.1l2.555,4.855h-1.84l-2.785-5.583a.294.294,0,0,0-.089-.141.269.269,0,0,0-.153,0h-1.278a.2.2,0,0,0-.141,0l-.1.141-2.734,5.57H133l2.478-4.854.46-.869a2.313,2.313,0,0,1,.434-.562A1.508,1.508,0,0,1,137,239.2a5.213,5.213,0,0,1,1-.089Zm.588-.677,2.555-5.429h1.661l-2.287,4.714c-.179.37-.332.664-.46.907a1.7,1.7,0,0,1-.434.537,1.418,1.418,0,0,1-.626.281,4.163,4.163,0,0,1-.984.089h-.677a3.6,3.6,0,0,1-1.278-.166,1.456,1.456,0,0,1-.7-.562,8.163,8.163,0,0,1-.588-1.1L133.192,233h1.8l2.555,5.442.1.141a.2.2,0,0,0,.141,0h1.278a.23.23,0,0,0,.153-.166Z" transform="translate(36.908 -1.866)"/>
    <path id="Path_172459" data-name="Path 172459" d="M147.342,239.1a3.347,3.347,0,0,1,1.278.179,1.533,1.533,0,0,1,.69.562,8.314,8.314,0,0,1,.626,1.1l2.555,4.855H150.7l-2.785-5.583a.294.294,0,0,0-.089-.141.269.269,0,0,0-.153,0H146.4a.2.2,0,0,0-.141,0l-.1.141-2.785,5.57h-1.7l2.478-4.854.46-.869a2.313,2.313,0,0,1,.434-.562,1.584,1.584,0,0,1,.626-.294,5.312,5.312,0,0,1,1-.089Zm.588-.677,2.555-5.429h1.674l-2.3,4.714c-.179.37-.332.664-.46.907a1.7,1.7,0,0,1-.434.537,1.367,1.367,0,0,1-.613.281,4.279,4.279,0,0,1-1,.09h-.677a3.6,3.6,0,0,1-1.278-.166,1.456,1.456,0,0,1-.7-.562,8.167,8.167,0,0,1-.588-1.1l-2.2-4.688H143.7l2.555,5.442a.916.916,0,0,0,.089.141.2.2,0,0,0,.141,0h1.278a.23.23,0,0,0,.166-.166Z" transform="translate(39.315 -1.866)"/>
    <path id="Path_172460" data-name="Path 172460" d="M159.059,239.1a3.386,3.386,0,0,1,1.278.179,1.508,1.508,0,0,1,.677.562,9.829,9.829,0,0,1,.639,1.1l2.555,4.855h-1.788l-2.772-5.583a.918.918,0,0,0-.089-.141.269.269,0,0,0-.153,0h-1.277a.23.23,0,0,0-.141,0,.918.918,0,0,0-.089.141l-2.811,5.57H153.4l2.466-4.854c.179-.332.332-.626.473-.869a2.044,2.044,0,0,1,.434-.562,1.507,1.507,0,0,1,.626-.294,5.11,5.11,0,0,1,1-.089Zm.575-.677,2.555-5.429h1.674l-2.3,4.714c-.166.37-.319.664-.447.907a1.891,1.891,0,0,1-.434.537,1.494,1.494,0,0,1-.626.281,4.227,4.227,0,0,1-.984.089h-.69a3.653,3.653,0,0,1-1.278-.166,1.52,1.52,0,0,1-.7-.562,9.945,9.945,0,0,1-.588-1.1l-2.2-4.688h1.827L158,238.445l.1.141a.2.2,0,0,0,.141,0h1.278a.23.23,0,0,0,.115-.166Z" transform="translate(42.569 -1.866)"/>
    <path id="Path_172461" data-name="Path 172461" d="M167.759,239.1a3.386,3.386,0,0,1,1.277.179,1.507,1.507,0,0,1,.677.562,8.163,8.163,0,0,1,.639,1.1l2.555,4.855h-1.8l-2.772-5.583a.448.448,0,0,0-.089-.141.269.269,0,0,0-.153,0h-1.277a.2.2,0,0,0-.141,0l-.1.141-2.785,5.57H162.1l2.478-4.854c.166-.332.332-.626.46-.869a2.045,2.045,0,0,1,.434-.562,1.507,1.507,0,0,1,.626-.294,5.11,5.11,0,0,1,1-.089Zm.588-.677,2.555-5.429h1.674l-2.287,4.714c-.179.37-.332.664-.46.907a1.7,1.7,0,0,1-.434.537,1.418,1.418,0,0,1-.626.281,4.164,4.164,0,0,1-.984.089h-.7a3.526,3.526,0,0,1-1.278-.166,1.559,1.559,0,0,1-.715-.562,10.219,10.219,0,0,1-.575-1.1l-2.2-4.688h1.788l2.555,5.442.1.141a.2.2,0,0,0,.141,0h1.278a.176.176,0,0,0,.179-.166Z" transform="translate(44.984 -1.866)"/>
    <path id="Path_172462" data-name="Path 172462" d="M176.459,239.1a3.347,3.347,0,0,1,1.277.179,1.533,1.533,0,0,1,.69.562,8.316,8.316,0,0,1,.626,1.1l2.555,4.855h-1.788l-2.785-5.583a.293.293,0,0,0-.089-.141.269.269,0,0,0-.153,0h-1.277a.2.2,0,0,0-.141,0l-.1.141-2.772,5.57h-1.7l2.478-4.854.46-.869a2.313,2.313,0,0,1,.434-.562,1.585,1.585,0,0,1,.626-.294,5.314,5.314,0,0,1,1-.089Zm.588-.677,2.555-5.429h1.674l-2.3,4.714c-.179.37-.332.664-.46.907a1.7,1.7,0,0,1-.434.537,1.367,1.367,0,0,1-.613.281,4.279,4.279,0,0,1-1,.09H175.8a3.6,3.6,0,0,1-1.278-.166,1.456,1.456,0,0,1-.7-.562,8.165,8.165,0,0,1-.588-1.1L171.056,233h1.788l2.555,5.442.1.141a.2.2,0,0,0,.141,0h1.277a.23.23,0,0,0,.128-.166Z" transform="translate(47.398 -1.866)"/>
    <path id="Path_172463" data-name="Path 172463" d="M185.172,239.1a3.31,3.31,0,0,1,1.278.179,1.469,1.469,0,0,1,.69.562,9.819,9.819,0,0,1,.639,1.1l2.555,4.855h-1.788l-2.785-5.583a.294.294,0,0,0-.089-.141.2.2,0,0,0-.141,0h-1.278a.2.2,0,0,0-.14,0l-.1.141-2.81,5.57h-1.7l2.478-4.854c.179-.332.332-.626.473-.869a1.828,1.828,0,0,1,.434-.562,1.52,1.52,0,0,1,.613-.294,5.315,5.315,0,0,1,1-.089Zm.575-.677,2.555-5.429h1.674l-2.3,4.714c-.179.37-.319.664-.447.907a1.891,1.891,0,0,1-.434.537,1.5,1.5,0,0,1-.626.281,4.227,4.227,0,0,1-.984.089h-.69a3.6,3.6,0,0,1-1.278-.166,1.52,1.52,0,0,1-.7-.562,8.163,8.163,0,0,1-.588-1.1L179.73,233h1.788l2.555,5.442.1.141a.179.179,0,0,0,.14,0h1.278A.23.23,0,0,0,185.747,238.419Z" transform="translate(49.813 -1.866)"/>
    <path id="Path_172464" data-name="Path 172464" d="M193.869,239.1a3.386,3.386,0,0,1,1.277.179,1.508,1.508,0,0,1,.677.562,8.166,8.166,0,0,1,.639,1.1l2.555,4.855h-1.8l-2.772-5.583a.447.447,0,0,0-.089-.141.269.269,0,0,0-.153,0h-1.277a.179.179,0,0,0-.141,0,.448.448,0,0,0-.1.141l-2.785,5.57H188.21l2.478-4.854c.166-.332.319-.626.46-.869a2.045,2.045,0,0,1,.434-.562,1.507,1.507,0,0,1,.626-.294,5.11,5.11,0,0,1,1-.089Zm.575-.677L197,232.99h1.674l-2.3,4.714c-.166.37-.319.664-.447.907a1.7,1.7,0,0,1-.434.537,1.494,1.494,0,0,1-.626.281,4.227,4.227,0,0,1-.984.089h-.69a3.653,3.653,0,0,1-1.278-.166,1.52,1.52,0,0,1-.7-.562,8.315,8.315,0,0,1-.575-1.1L188.427,233h1.789l2.555,5.442.1.141a.2.2,0,0,0,.141,0h1.278a.217.217,0,0,0,.153-.166Z" transform="translate(52.23 -1.866)"/>
    <path id="Path_172465" data-name="Path 172465" d="M202.569,239.1a3.386,3.386,0,0,1,1.277.179,1.508,1.508,0,0,1,.677.562,8.158,8.158,0,0,1,.639,1.1l2.555,4.855h-1.8l-2.772-5.583a.447.447,0,0,0-.089-.141.268.268,0,0,0-.153,0h-1.277a.2.2,0,0,0-.141,0l-.1.141-2.785,5.57H196.91l2.478-4.854c.166-.332.332-.626.46-.869a2.313,2.313,0,0,1,.434-.562,1.507,1.507,0,0,1,.626-.294,5.11,5.11,0,0,1,1-.089Zm.588-.677,2.555-5.429h1.674L205.1,237.7c-.179.37-.332.664-.46.907a1.7,1.7,0,0,1-.434.537,1.418,1.418,0,0,1-.626.281,4.164,4.164,0,0,1-.984.089h-.69a3.526,3.526,0,0,1-1.277-.166,1.559,1.559,0,0,1-.715-.562,10.216,10.216,0,0,1-.575-1.1L197.127,233h1.788l2.555,5.442.1.141a.2.2,0,0,0,.141,0h1.278C203.042,238.6,203.106,238.534,203.157,238.419Z" transform="translate(54.644 -1.866)"/>
    <path id="Path_172466" data-name="Path 172466" d="M211.218,239.1a3.347,3.347,0,0,1,1.278.179,1.469,1.469,0,0,1,.69.562,8.313,8.313,0,0,1,.626,1.1l2.555,4.855h-1.788l-2.785-5.583a.294.294,0,0,0-.089-.141.269.269,0,0,0-.153,0h-1.278a.2.2,0,0,0-.141,0l-.1.141-2.721,5.57h-1.7l2.478-4.854.46-.869a2.312,2.312,0,0,1,.434-.562,1.585,1.585,0,0,1,.626-.294,5.315,5.315,0,0,1,1-.089Zm.588-.677,2.555-5.429h1.674l-2.3,4.714c-.179.37-.332.664-.46.907a1.7,1.7,0,0,1-.434.537,1.367,1.367,0,0,1-.613.281,4.279,4.279,0,0,1-1,.09h-.677a3.6,3.6,0,0,1-1.278-.166,1.456,1.456,0,0,1-.7-.562,8.17,8.17,0,0,1-.588-1.1L205.84,233h1.789l2.555,5.442a.919.919,0,0,0,.089.141.2.2,0,0,0,.141,0h1.277a.23.23,0,0,0,.166-.166Z" transform="translate(57.058 -1.866)"/>
    <path id="Path_172467" data-name="Path 172467" d="M222.989,239.1a3.386,3.386,0,0,1,1.278.179,1.508,1.508,0,0,1,.677.562,9.831,9.831,0,0,1,.639,1.1l2.555,4.855h-1.788l-2.772-5.583a.92.92,0,0,0-.089-.141.268.268,0,0,0-.153,0h-1.278a.243.243,0,0,0-.153,0,.918.918,0,0,0-.089.141l-2.8,5.57H217.33l2.478-4.854c.166-.332.319-.626.46-.869a2.044,2.044,0,0,1,.434-.562,1.507,1.507,0,0,1,.626-.294,5.11,5.11,0,0,1,1-.089Zm.575-.677,2.555-5.429h1.674l-2.3,4.714c-.166.37-.319.664-.447.907a1.89,1.89,0,0,1-.434.537,1.5,1.5,0,0,1-.626.281,4.227,4.227,0,0,1-.984.089h-.69a3.653,3.653,0,0,1-1.277-.166,1.52,1.52,0,0,1-.7-.562,8.316,8.316,0,0,1-.575-1.1L217.547,233h1.789l2.555,5.442.1.141a.2.2,0,0,0,.141,0h1.278a.23.23,0,0,0,.153-.166Z" transform="translate(60.31 -1.866)"/>
    <path id="Path_172468" data-name="Path 172468" d="M228.369,243.455h-1.7v-2.1h1.7Z" transform="translate(62.902 0.457)"/>
    <path id="Path_172469" data-name="Path 172469" d="M26,215.8a2.95,2.95,0,0,1-.217.613.626.626,0,0,1-.294.281,2.055,2.055,0,0,1-.562,0h-.843l-1.533-6.26h.792l1.354,5.557h.447a.1.1,0,0,0,0-.077l1.456-5.455h.754Z" transform="translate(6.258 -14.127)"/>
    <path id="Path_172470" data-name="Path 172470" d="M31.3,216.736h-.8l-.422-1.75.115.1H27.429l.128-.1-.46,1.737H26.33l1.495-5.34a2.734,2.734,0,0,1,.217-.575.588.588,0,0,1,.307-.281,1.686,1.686,0,0,1,.575-.077h.818Zm-2.747-5.468-.869,3.232-.077-.1h2.44l-.077.1-.8-3.347h-.5a.077.077,0,0,0-.064,0,.166.166,0,0,0-.051.115Z" transform="translate(7.307 -14.122)"/>
    <path id="Path_172471" data-name="Path 172471" d="M34,216.027v.7H30.86v-6.26h.8v5.71l-.153-.153Z" transform="translate(8.564 -14.115)"/>
    <path id="Path_172472" data-name="Path 172472" d="M34.732,216.73H33.94v-6.26h.792Z" transform="translate(9.419 -14.115)"/>
    <path id="Path_172473" data-name="Path 172473" d="M35.77,216.745v-6.273h2.7a1.406,1.406,0,0,1,1.022.281,1.278,1.278,0,0,1,.332.958v3.833a1.188,1.188,0,0,1-.345.958,1.533,1.533,0,0,1-1.035.294Zm3.092-5.6H36.575v4.931h2.287a.115.115,0,0,0,.128-.128v-4.676a.115.115,0,0,0-.128-.128Z" transform="translate(9.927 -14.118)"/>
    <path id="Path_172474" data-name="Path 172474" d="M44.431,216.733h-.8l-.422-1.75.115.1H40.547l.128-.1-.511,1.75H39.41l1.495-5.34a2.172,2.172,0,0,1,.217-.575.588.588,0,0,1,.307-.281A1.635,1.635,0,0,1,42,210.46h.843Zm-2.747-5.468L40.8,214.5l-.077-.1h2.44l-.077.1L42.3,211.15h-.575Z" transform="translate(10.937 -14.119)"/>
    <path id="Path_172475" data-name="Path 172475" d="M28.522,220.4V217.51h.792v6.247h-.792v-2.964l.141.141H25.712l.153-.141v2.964h-.8V217.51h.8V220.4l-.153-.153h2.951Z" transform="translate(6.955 -12.162)"/>
    <path id="Path_172476" data-name="Path 172476" d="M34.021,223.76h-.8l-.383-1.725.115.089H30.137l.128-.089-.46,1.725H29l1.495-5.327a3.361,3.361,0,0,1,.2-.588.6.6,0,0,1,.319-.268,1.6,1.6,0,0,1,.562-.077h.856Zm-2.747-5.455-.881,3.219-.077-.089h2.44l-.077.089-.792-3.322h-.575Z" transform="translate(8.048 -12.165)"/>
    <path id="Path_172477" data-name="Path 172477" d="M34.3,220.258h1.546a1.572,1.572,0,0,1,1.022.294,1.1,1.1,0,0,1,.345.894v1.124a1.175,1.175,0,0,1-.332.933,1.354,1.354,0,0,1-1,.294H33.428v-.69h2.836a.115.115,0,0,0,.128-.128v-1.827a.115.115,0,0,0-.128-.128H34.68a1.469,1.469,0,0,1-1-.281,1.073,1.073,0,0,1-.332-.894v-1.086a1.277,1.277,0,0,1,.345-.933,1.38,1.38,0,0,1,1.022-.319h2.325v.7H34.3a.115.115,0,0,0-.128.128v1.788a.115.115,0,0,0,.128.128Z" transform="translate(9.253 -12.164)"/>
    <path id="Path_172478" data-name="Path 172478" d="M38.9,223.746h-.8v-5.621l.128.128h-1.7v-.7h3.935v.7h-1.7l.141-.128Z" transform="translate(10.135 -12.151)"/>
    <path id="Path_172479" data-name="Path 172479" d="M44.431,223.76h-.8l-.422-1.725.115.089H40.547l.128-.089-.511,1.725H39.41l1.495-5.327a2.555,2.555,0,0,1,.217-.588.626.626,0,0,1,.307-.268A1.635,1.635,0,0,1,42,217.5h.843Zm-2.747-5.455-.881,3.219-.077-.089h2.44l-.077.089L42.3,218.2h-.575Z" transform="translate(10.937 -12.165)"/>
    <path id="Path_172480" data-name="Path 172480" d="M48.292,221.316v-8.138a2.07,2.07,0,0,1,.652-1.725,3.117,3.117,0,0,1,1.98-.511h2.925a3.168,3.168,0,0,1,2.006.511,2.07,2.07,0,0,1,.652,1.725v8.138a2.044,2.044,0,0,1-.652,1.712,3.168,3.168,0,0,1-2.006.524H50.924a3.1,3.1,0,0,1-1.98-.524A2.044,2.044,0,0,1,48.292,221.316Zm6.285-8.943H50.221c-.128,0-.179.064-.179.192v9.351c0,.128,0,.192.179.192h4.356c.128,0,.179-.064.179-.192v-9.351C54.756,212.437,54.705,212.373,54.578,212.373Z" transform="translate(13.399 -13.988)"/>
    <path id="Path_172481" data-name="Path 172481" d="M56.3,213.325,60.018,211h1.559v12.341h-1.7V212.559l.141.064-2.989,1.737Zm7.665,8.789v1.278H56.913v-1.278Z" transform="translate(15.624 -13.969)"/>
    <path id="Path_172482" data-name="Path 172482" d="M69.617,210.44h1.559l-6.528,14.972H63Z" transform="translate(17.482 -14.124)"/>
    <path id="Path_172483" data-name="Path 172483" d="M70.712,221.316v-8.138a2.108,2.108,0,0,1,.639-1.725,3.181,3.181,0,0,1,1.993-.511h2.925a3.168,3.168,0,0,1,2.006.511,2.07,2.07,0,0,1,.639,1.725v8.138a2.044,2.044,0,0,1-.639,1.712,3.168,3.168,0,0,1-2.006.524H73.344a3.181,3.181,0,0,1-1.993-.524,2.082,2.082,0,0,1-.639-1.712Zm6.273-8.943H72.641a.166.166,0,0,0-.192.192v9.351a.166.166,0,0,0,.192.192h4.344a.166.166,0,0,0,.192-.192v-9.351a.166.166,0,0,0-.192-.192Z" transform="translate(19.62 -13.988)"/>
    <path id="Path_172484" data-name="Path 172484" d="M79,219.692a2.466,2.466,0,0,1,.179-1.035,1.431,1.431,0,0,1,.549-.588,6.591,6.591,0,0,1,.958-.485l4.011-1.865a.435.435,0,0,0,.2-.141.294.294,0,0,0,.064-.217v-2.67c0-.166-.089-.243-.268-.243H79.243v-1.431l4.727-.077a3.4,3.4,0,0,1,1.546.268,1.8,1.8,0,0,1,.869.818,2.8,2.8,0,0,1,.281,1.277v1.776a1.7,1.7,0,0,1-.37,1.175,3.832,3.832,0,0,1-1.277.818l-3.96,1.852a.473.473,0,0,0-.294.23,1.278,1.278,0,0,0,0,.447v2.351h5.9v1.38H79Z" transform="translate(21.922 -13.987)"/>
    <path id="Path_172485" data-name="Path 172485" d="M24.93,177.625l6.732-4.165h2.823v22.6H31.407v-19.75l.268.1L26.3,179.618Zm13.925,16.084v2.351H26.08v-2.351Z" transform="translate(6.918 -18.386)"/>
    <path id="Path_172486" data-name="Path 172486" d="M40.161,189.3a4.612,4.612,0,0,1,.319-1.9,2.7,2.7,0,0,1,1-1.086,16.412,16.412,0,0,1,1.737-.894l7.307-3.411a.946.946,0,0,0,.37-.255.575.575,0,0,0,.115-.383V176.45c0-.281-.166-.422-.485-.422H40.659v-2.555l8.572-.141a6.183,6.183,0,0,1,2.811.473,3.385,3.385,0,0,1,1.584,1.52,5.276,5.276,0,0,1,.5,2.389v3.232a3.091,3.091,0,0,1-.677,2.172,7.142,7.142,0,0,1-2.325,1.495L43.93,188a.856.856,0,0,0-.549.422,2.555,2.555,0,0,0-.089.818v4.318H54.086v2.555H40.161Z" transform="translate(11.143 -18.425)"/>
    <path id="Path_172487" data-name="Path 172487" d="M68.85,191.748a4.228,4.228,0,0,1-1.277,3.373,5.6,5.6,0,0,1-3.9,1.15l-8.317-.153v-2.555h9.9a.422.422,0,0,0,.485-.473v-6.975c0-.307-.153-.46-.485-.46H57.455V183.1H64.98q.5,0,.5-.46v-6.273q0-.46-.5-.46H55.411v-2.491l8.138-.141a5.646,5.646,0,0,1,3.833,1.06,4.229,4.229,0,0,1,1.278,3.385v3.27a3.322,3.322,0,0,1-1.405,3.015,7.409,7.409,0,0,1-3.973.907l.268-1.073a7.218,7.218,0,0,1,4,.881,3.424,3.424,0,0,1,1.278,3.079Z" transform="translate(15.363 -18.444)"/>
    <path id="Path_172488" data-name="Path 172488" d="M85.277,196.077H82.224v-5.544l.332.243H70.79v-2.031l7.18-12.417c.409-.69.767-1.278,1.073-1.7a2.683,2.683,0,0,1,1.278-.933,6.068,6.068,0,0,1,2.108-.294l2.9.077V188.6l-.23-.243h3.833v2.414h-3.82l.23-.243Zm-4.484-19.789-7,12.315-.217-.243h8.943l-.268.243V175.969h-.971a.485.485,0,0,0-.319.077.549.549,0,0,0-.166.243Z" transform="translate(19.645 -18.404)"/>
    <path id="Path_172489" data-name="Path 172489" d="M98.409,182.3h5.11a6.2,6.2,0,0,1,3.909,1.073,3.832,3.832,0,0,1,1.354,3.27v5.11a4.229,4.229,0,0,1-1.277,3.385,5.659,5.659,0,0,1-3.833,1.073l-8.572-.153V193.5h10.041c.332,0,.5-.166.5-.473v-7.793q0-.46-.5-.46H95.317V173.42h12.609v2.555H98.409Z" transform="translate(26.391 -18.398)"/>
    <path id="Path_172490" data-name="Path 172490" d="M121.018,196.208h-4.165a6.3,6.3,0,0,1-3.833-.971,3.833,3.833,0,0,1-1.278-3.232V177.876a4.229,4.229,0,0,1,1.354-3.385,5.634,5.634,0,0,1,3.833-1.137l8.1.141v2.555h-9.671q-.5,0-.5.46v16.608c0,.307.179.473.537.473h7.065c.332,0,.5-.166.5-.473V185.17q0-.422-.5-.422H114.5v-2.555h6.579a6.119,6.119,0,0,1,3.833.984,3.833,3.833,0,0,1,1.278,3.258v5.3a4.114,4.114,0,0,1-1.277,3.347,5.877,5.877,0,0,1-3.9,1.124Z" transform="translate(31.005 -18.42)"/>
    <path id="Path_172491" data-name="Path 172491" d="M131.7,196.138h-3.3l8.572-19.827a.409.409,0,0,0,.064-.345c0-.077-.141-.115-.281-.115H126.54v-2.389H137.5a2.977,2.977,0,0,1,2.236.728,2.926,2.926,0,0,1,.69,2.082Z" transform="translate(35.116 -18.39)"/>
    <path id="Path_172492" data-name="Path 172492" d="M152.047,196.244h-4.7a5.813,5.813,0,0,1-3.833-1.163,4.178,4.178,0,0,1-1.277-3.36v-3.832a3.4,3.4,0,0,1,1.277-3.079,7.192,7.192,0,0,1,3.986-.882l.23,1.073a7.257,7.257,0,0,1-3.935-.907,3.3,3.3,0,0,1-1.418-3.015v-3.27a4.19,4.19,0,0,1,1.278-3.36,5.8,5.8,0,0,1,3.833-1.086h4.548a5.8,5.8,0,0,1,3.833,1.086,4.152,4.152,0,0,1,1.277,3.36v3.27a3.321,3.321,0,0,1-1.405,3.015,7.41,7.41,0,0,1-3.973.907l.255-1.073a7.269,7.269,0,0,1,4,.881,3.436,3.436,0,0,1,1.278,3.079v3.833a4.19,4.19,0,0,1-1.278,3.36,5.813,5.813,0,0,1-3.973,1.163Zm-6.771-3.143a.434.434,0,0,0,.485.473h7.869a.434.434,0,0,0,.486-.473v-7.014c0-.281-.166-.422-.486-.422h-7.857c-.319,0-.485.141-.485.422Zm.192-10.361c0,.319.153.473.486.473h7.486c.332,0,.5-.153.5-.473v-6.3q0-.46-.5-.46h-7.486c-.332,0-.486.153-.486.46Z" transform="translate(39.465 -18.418)"/>
    <path id="Path_172493" data-name="Path 172493" d="M179.667,191.721a4.267,4.267,0,0,1-1.278,3.373,5.634,5.634,0,0,1-3.833,1.15l-8.355-.153v-2.555h9.926c.332,0,.5-.166.5-.473V176.455q0-.46-.5-.46h-7.116c-.319,0-.485.153-.485.46v8.112a.422.422,0,0,0,.485.473h8.023v2.453h-6.592a6.208,6.208,0,0,1-3.833-.984,3.9,3.9,0,0,1-1.277-3.258v-5.48a4.114,4.114,0,0,1,1.277-3.347,5.864,5.864,0,0,1,3.833-1.06h4.177a6.49,6.49,0,0,1,3.833.933,3.833,3.833,0,0,1,1.278,3.258Z" transform="translate(45.877 -18.418)"/>
    <path id="Path_172494" data-name="Path 172494" d="M183.1,192.273V177.365a3.833,3.833,0,0,1,1.15-3.155,5.723,5.723,0,0,1,3.615-.945H193.2a5.787,5.787,0,0,1,3.654.945,3.833,3.833,0,0,1,1.163,3.155v14.909a3.832,3.832,0,0,1-1.163,3.155,5.787,5.787,0,0,1-3.654.945h-5.3a5.723,5.723,0,0,1-3.615-.945A3.832,3.832,0,0,1,183.1,192.273Zm11.37-16.365h-7.895c-.23,0-.345.115-.345.358v17.106a.319.319,0,0,0,.345.358h7.895a.319.319,0,0,0,.345-.358V176.253Q194.858,175.908,194.474,175.908Z" transform="translate(50.806 -18.446)"/>
    <path id="Path_172495" data-name="Path 172495" d="M199.93,177.625l6.732-4.165h2.823v22.6h-3.079v-19.75l.268.1-5.378,3.207Zm13.925,16.084v2.351H201.016v-2.351Z" transform="translate(55.482 -18.386)"/>
    <path id="Path_172496" data-name="Path 172496" d="M215.161,189.3a4.612,4.612,0,0,1,.319-1.9,2.7,2.7,0,0,1,1-1.086,16.412,16.412,0,0,1,1.737-.894l7.295-3.411a.907.907,0,0,0,.383-.255.575.575,0,0,0,.115-.383V176.45q0-.422-.5-.422h-9.85v-2.555l8.572-.141a6.183,6.183,0,0,1,2.811.473,3.309,3.309,0,0,1,1.571,1.52,5.111,5.111,0,0,1,.511,2.389v3.232a3.092,3.092,0,0,1-.677,2.172,7.141,7.141,0,0,1-2.325,1.495L218.93,188a.856.856,0,0,0-.549.422,2.554,2.554,0,0,0-.089.818v4.318h10.795v2.555H215.161Z" transform="translate(59.707 -18.425)"/>
    <path id="Path_172497" data-name="Path 172497" d="M249.47,191.748a4.267,4.267,0,0,1-1.277,3.373,5.634,5.634,0,0,1-3.9,1.15l-8.317-.153v-2.555h9.9a.434.434,0,0,0,.485-.473v-6.975c0-.307-.166-.46-.485-.46h-7.665V183.1h7.525c.319,0,.485-.153.485-.46v-6.273c0-.307-.166-.46-.485-.46h-9.735v-2.491l8.125-.141a5.634,5.634,0,0,1,3.832,1.06,4.228,4.228,0,0,1,1.278,3.385v3.27a3.3,3.3,0,0,1-1.418,3.015,7.372,7.372,0,0,1-3.973.907l.268-1.073a7.269,7.269,0,0,1,4.011.881,3.449,3.449,0,0,1,1.277,3.079Z" transform="translate(65.486 -18.444)"/>
    <path id="Path_172498" data-name="Path 172498" d="M265.9,196.077h-3.04v-5.544l.256.243h-11.7v-2.031l7.192-12.417a17.005,17.005,0,0,1,1.073-1.7,2.556,2.556,0,0,1,1.214-.933A6.171,6.171,0,0,1,263,173.4l2.9.077V188.6l-.217-.243h3.832v2.415H265.68l.217-.243Zm-4.471-19.789-7,12.315-.23-.243h8.943l-.256.243V175.969h-.945a.511.511,0,0,0-.319.077A.536.536,0,0,0,261.426,176.288Z" transform="translate(69.768 -18.404)"/>
    <path id="Path_172499" data-name="Path 172499" d="M273.409,182.3h5.11a6.208,6.208,0,0,1,3.922,1.073,3.922,3.922,0,0,1,1.354,3.27v5.11a4.267,4.267,0,0,1-1.277,3.385,5.659,5.659,0,0,1-3.832,1.073l-8.585-.153V193.5h10.054a.422.422,0,0,0,.485-.473v-7.793c0-.307-.153-.46-.485-.46h-9.786V173.42h12.609v2.555H273.46Z" transform="translate(74.954 -18.398)"/>
    <path id="Path_172500" data-name="Path 172500" d="M296.021,196.208h-4.177a6.272,6.272,0,0,1-3.832-.971,3.832,3.832,0,0,1-1.277-3.232V177.876a4.229,4.229,0,0,1,1.354-3.385,5.583,5.583,0,0,1,3.833-1.137l8.087.141v2.555h-9.671c-.319,0-.485.153-.485.46v16.608c0,.307.179.473.524.473h7.077a.422.422,0,0,0,.486-.473v-7.946c0-.281-.153-.422-.485-.422h-7.946v-2.555h6.579a6.119,6.119,0,0,1,3.833.984,3.832,3.832,0,0,1,1.277,3.258v5.3a4.152,4.152,0,0,1-1.277,3.347,5.877,5.877,0,0,1-3.9,1.124Z" transform="translate(79.566 -18.42)"/>
    <rect id="Rectangle_37247" data-name="Rectangle 37247" width="61.371" height="44.291" rx="4.46" transform="translate(42.95 62.365)" fill="#bfbfc1"/>
    <path id="Path_172501" data-name="Path 172501" d="M50.023,116.187a7.818,7.818,0,0,0,0-15.637v.881a6.937,6.937,0,1,1,0,13.874H33.62v.882H48v13.886H33.62v.881h16.4a6.937,6.937,0,0,1,0,13.874v.881a7.818,7.818,0,1,0,0-15.637H48.886V116.187Z" transform="translate(9.33 -38.62)" fill="#666"/>
    <path id="Path_172502" data-name="Path 172502" d="M86.922,116.187v-.881h-16.4a6.937,6.937,0,0,1,0-13.874v-.881a7.818,7.818,0,0,0,0,15.637h1.124v13.886H70.518a7.818,7.818,0,1,0,0,15.637v-.881a6.937,6.937,0,0,1,0-13.874h16.4v-.881h-14.4V116.187Z" transform="translate(17.399 -38.62)" fill="#666"/>
    <path id="Path_172503" data-name="Path 172503" d="M88.471,145.71H40.322a7.052,7.052,0,0,1-7.052-7.052V107.589a7.052,7.052,0,0,1,7.052-7.039H88.471a7.052,7.052,0,0,1,7.052,7.039v31.069a7.052,7.052,0,0,1-7.052,7.052ZM40.322,101.431a6.17,6.17,0,0,0-6.119,6.158v31.069a6.17,6.17,0,0,0,6.17,6.17h48.1a6.17,6.17,0,0,0,6.17-6.17V107.589a6.17,6.17,0,0,0-6.17-6.158Z" transform="translate(9.232 -38.62)" fill="#666"/>
    <path id="Path_172504" data-name="Path 172504" d="M106.912,121.9a23.787,23.787,0,0,0-7.141-17l-1.661,1.661a21.488,21.488,0,0,1,0,30.66l1.661,1.661a23.826,23.826,0,0,0,7.141-16.978Z" transform="translate(27.226 -37.412)" fill="#666"/>
    <path id="Path_172505" data-name="Path 172505" d="M100.595,120.766A16.365,16.365,0,0,0,95.651,109l-1.661,1.661a14.053,14.053,0,0,1,0,20.2l1.661,1.661A16.365,16.365,0,0,0,100.595,120.766Z" transform="translate(26.083 -36.274)" fill="#666"/>
    <path id="Path_172506" data-name="Path 172506" d="M94.227,119.6a8.943,8.943,0,0,0-2.747-6.388l-1.661,1.661a6.528,6.528,0,0,1,0,9.543l1.674,1.661A8.942,8.942,0,0,0,94.227,119.6Z" transform="translate(24.926 -35.107)" fill="#666"/>
    <rect id="Rectangle_37248" data-name="Rectangle 37248" width="80.483" height="43.435" rx="5.37" transform="translate(325.764 211.259)" fill="#bfbfc1"/>
    <path id="Ellipse_4696" data-name="Ellipse 4696" d="M15.522-.75A16.272,16.272,0,0,1,27.028,27.028,16.272,16.272,0,0,1,4.016,4.016,16.165,16.165,0,0,1,15.522-.75Zm0,31.043A14.772,14.772,0,1,0,.75,15.522,14.788,14.788,0,0,0,15.522,30.293Z" transform="translate(339.817 217.454)" fill="#666"/>
    <path id="Ellipse_4697" data-name="Ellipse 4697" d="M15.522-.75A16.272,16.272,0,0,1,27.028,27.028,16.272,16.272,0,0,1,4.016,4.016,16.165,16.165,0,0,1,15.522-.75Zm0,31.043A14.772,14.772,0,1,0,.75,15.522,14.788,14.788,0,0,0,15.522,30.293Z" transform="translate(361.151 217.454)" fill="#666"/>
  </g>
</svg>
