<svg xmlns="http://www.w3.org/2000/svg" width="1329.3" height="1761.625" viewBox="0 0 1329.3 1761.625">
  <g id="bg-curved" transform="translate(10113.5 7573)">
    <rect id="Rectangle_37373" data-name="Rectangle 37373" width="1328" height="250" transform="translate(-10113 -7573)" fill="#fff"/>
    <path id="bg-blueCurved" d="M7355.7-744.838l.3,1577.972h-.3V998.787c-3.4-2.677-6.541-5.554-10.249-8-27.771-18.3-53.827-38.221-83.885-54.4-59.6-32.071-125.685-37.6-195.14-16.916q-36.259,10.8-71.565,23.172c-43.56,15.311-88.791,24.409-137.994,22.373-30.795-1.274-57.989-8.043-81.694-22.244-35.479-21.257-60.184-48.8-88.137-74.482-14.812-13.612-29.933-27.163-46.532-39.665-34.138-25.712-75.609-37.485-126.535-34.281-54.782,3.448-100.545,16.53-133.615,49.231-27.594,27.286-55.554,54.516-85.981,80.206-49.25,41.583-113.563,55.574-187.941,44.844-26.627-3.839-52.316-10.933-78.435-16.54l-.3-1696.925Z" transform="translate(-2757 -6556.713) rotate(180)" fill="#e8f4fe"/>
    <path id="bg-blueCurved_-_Outline" data-name="bg-blueCurved - Outline" d="M6027.2-745.338h1329v.5l.3,1578.472h-.3V999.817l-.809-.637c-1.076-.847-2.142-1.727-3.172-2.577a82.277,82.277,0,0,0-7.043-5.4c-8.366-5.513-16.712-11.267-24.784-16.832-18.721-12.906-38.08-26.251-59.062-37.545a239.515,239.515,0,0,0-114.65-29.075,264,264,0,0,0-39.588,3.052,301.8,301.8,0,0,0-40.522,9.147c-24.438,7.276-48.508,15.069-71.542,23.164-10.12,3.557-20.192,6.722-29.937,9.407-10.281,2.832-20.583,5.237-30.619,7.146-10.505,2-21.091,3.527-31.461,4.541-10.79,1.055-21.712,1.59-32.462,1.59-4.544,0-9.154-.1-13.7-.284-32.3-1.336-59.1-8.636-81.93-22.315-6.578-3.941-12.932-8.173-19.426-12.939-5.785-4.245-11.548-8.819-17.62-13.983-11.275-9.589-21.924-19.811-32.223-29.7-6.155-5.908-12.52-12.017-18.95-17.925-13.466-12.375-29.274-26.664-46.495-39.634a169.453,169.453,0,0,0-23.9-15.075,167.311,167.311,0,0,0-26.228-10.853,182.4,182.4,0,0,0-28.7-6.564,216.843,216.843,0,0,0-31.324-2.2c-5.223,0-10.622.173-16.046.514-60.951,3.836-103.306,19.434-133.294,49.087-26.649,26.353-55.243,54.255-86.01,80.233-38.058,32.133-85.79,48.426-141.871,48.426a327,327,0,0,1-46.464-3.469c-18.3-2.639-36.445-6.88-53.993-10.982-8.009-1.872-16.291-3.808-24.476-5.565l-.4-.085v-.4Zm1328,1h-1327l.3,1696.021c8.065,1.736,16.214,3.641,24.1,5.484,17.527,4.1,35.652,8.333,53.908,10.966a326.019,326.019,0,0,0,46.321,3.459c55.838,0,103.353-16.214,141.226-48.19,30.74-25.954,59.317-53.841,85.952-80.18a142.509,142.509,0,0,1,13.035-11.4,147.133,147.133,0,0,1,14.184-9.673,159.922,159.922,0,0,1,15.288-8.061c5.185-2.39,10.685-4.6,16.346-6.565,21.166-7.352,45.725-11.825,75.083-13.672,5.445-.343,10.865-.516,16.109-.516a217.854,217.854,0,0,1,31.469,2.215,183.426,183.426,0,0,1,28.859,6.6,168.3,168.3,0,0,1,26.385,10.918,170.487,170.487,0,0,1,24.044,15.164c17.256,13,33.086,27.305,46.57,39.7,6.438,5.916,12.807,12.029,18.965,17.94,10.288,9.874,20.926,20.085,32.178,29.655,6.054,5.149,11.8,9.708,17.564,13.939,6.469,4.747,12.8,8.963,19.348,12.887,22.686,13.591,49.331,20.844,81.458,22.174,4.534.188,9.13.283,13.66.283,10.717,0,21.606-.533,32.365-1.586,10.341-1.011,20.9-2.535,31.372-4.528,10.01-1.9,20.286-4.3,30.541-7.128,9.722-2.678,19.772-5.836,29.87-9.386,23.049-8.1,47.135-15.9,71.588-23.179a302.755,302.755,0,0,1,40.657-9.177,264.99,264.99,0,0,1,39.739-3.063,245.284,245.284,0,0,1,29.9,1.821,237.777,237.777,0,0,1,57.63,14.591,252.079,252.079,0,0,1,27.6,12.782c21.032,11.32,40.414,24.681,59.157,37.6,8.067,5.561,16.409,11.312,24.767,16.82a83.031,83.031,0,0,1,7.129,5.459c.766.632,1.551,1.281,2.344,1.918V832.634h.3Z" transform="translate(-2757 -6556.713) rotate(180)" fill="rgba(0,0,0,0)"/>
  </g>
</svg>
