<svg xmlns="http://www.w3.org/2000/svg" xmlns:xlink="http://www.w3.org/1999/xlink" width="1243.667" height="513" viewBox="0 0 1243.667 513">
  <defs>
    <linearGradient id="linear-gradient" x1="1.043" y1="-0.125" x2="0.336" y2="1.321" gradientUnits="objectBoundingBox">
      <stop offset="0" stop-color="#64f6f0"/>
      <stop offset="0.645" stop-color="#4b31a8"/>
      <stop offset="1" stop-color="#461698"/>
    </linearGradient>
    <clipPath id="clip-path">
      <path id="Rectangle_652" data-name="Rectangle 652" d="M1224.081,0H19.585C8.769,0,0,8.507,0,19V494c0,10.493,8.769,19,19.585,19h1204.5c10.817,0,19.585-8.507,19.585-19V19C1243.667,8.507,1234.9,0,1224.081,0Z" fill="url(#linear-gradient)"/>
    </clipPath>
    <linearGradient id="linear-gradient-2" x1="0.425" y1="-0.997" x2="0.5" y2="1" xlink:href="#linear-gradient"/>
    <linearGradient id="linear-gradient-3" x1="0.5" y1="0" x2="0.5" y2="1" xlink:href="#linear-gradient"/>
  </defs>
  <g id="bg-sliders2" transform="translate(-178.333 -1367)">
    <rect id="Rectangle_34835" data-name="Rectangle 34835" width="1243" height="513" rx="18" transform="translate(179 1367)" fill="#fff"/>
    <g id="Mask_Group_45" data-name="Mask Group 45" transform="translate(178.333 1367)" clip-path="url(#clip-path)">
      <path id="Subtraction_4" data-name="Subtraction 4" d="M579.216,520.576h0c-20.945-2.856-41.982-6.716-62.528-11.472-20.316-4.7-40.652-10.4-60.44-16.927-19.6-6.466-39.145-13.9-58.079-22.108-18.793-8.142-37.451-17.234-55.457-27.027-17.9-9.735-35.584-20.394-52.562-31.677-16.9-11.229-33.519-23.362-49.4-36.059-15.813-12.642-31.28-26.156-45.971-40.168s-28.9-28.821-42.268-44.015c-13.422-15.258-26.309-31.269-38.3-47.588-12.049-16.395-23.51-33.519-34.065-50.895-10.61-17.474-20.555-35.62-29.559-53.935-9.062-18.427-17.4-37.5-24.791-56.7C18.345,62.639,11.7,42.719,6.049,22.8,3.913,15.271,1.878,7.6,0,0H183.9c1.473,4.309,3.021,8.647,4.6,12.895,5.169,13.888,11.023,27.745,17.4,41.187,6.311,13.3,13.3,26.518,20.769,39.291,7.408,12.672,15.466,25.192,23.949,37.213,8.433,11.957,17.5,23.717,26.947,34.953,9.42,11.2,19.435,22.14,29.767,32.511s21.24,20.43,32.4,29.883S362.621,246.5,374.585,255s24.459,16.613,37.118,24.08c12.732,7.507,25.925,14.541,39.209,20.906,13.377,6.412,27.207,12.317,41.107,17.551,14.007,5.271,28.417,9.983,42.828,14.007,14.561,4.063,29.488,7.522,44.368,10.283V520.575Z" transform="translate(664.951 -0.5)" fill="url(#linear-gradient-2)"/>
      <path id="Subtraction_2" data-name="Subtraction 2" d="M406.89,0C631.609,0,813.78,182.171,813.78,406.89s-182.171,406.89-406.89,406.89S0,631.608,0,406.89,182.17,0,406.89,0Z" transform="translate(575.638 172.068)" opacity="0.444" fill="url(#linear-gradient-3)" style="mix-blend-mode: multiply;isolation: isolate"/>
      <path id="Subtraction_6" data-name="Subtraction 6" d="M374.4,319.447h0a505.4,505.4,0,0,1-54.966-14.366A506.052,506.052,0,0,1,248.345,276a509.072,509.072,0,0,1-65.226-39.065,511.988,511.988,0,0,1-58.406-48.089,512.3,512.3,0,0,1-50.622-56.153A510.03,510.03,0,0,1,32.2,69.421,506.3,506.3,0,0,1,0,0H2.137c2.377,6.316,4.9,12.628,7.49,18.761,6.341,14.988,13.5,29.855,21.288,44.188,7.729,14.229,16.248,28.252,25.32,41.678,9.043,13.384,18.834,26.477,29.1,38.914,10.235,12.408,21.212,24.486,32.625,35.9s23.5,22.393,35.9,32.629c12.452,10.275,25.544,20.065,38.912,29.1,13.419,9.067,27.442,17.586,41.679,25.32,14.332,7.785,29.2,14.946,44.189,21.285,15.13,6.4,30.754,12.121,46.439,17,15.824,4.922,32.123,9.113,48.444,12.458l.877.178v2.039Z" transform="translate(870.762 -0.498)" fill="#fff"/>
    </g>
  </g>
</svg>
