<svg xmlns="http://www.w3.org/2000/svg" xmlns:xlink="http://www.w3.org/1999/xlink" width="1320" height="506.835" viewBox="0 0 1320 506.835">
  <defs>
    <linearGradient id="linear-gradient" x1="1.043" y1="-0.125" x2="0.336" y2="1.321" gradientUnits="objectBoundingBox">
      <stop offset="0" stop-color="#64f6f0"/>
      <stop offset="0.645" stop-color="#4b31a8"/>
      <stop offset="1" stop-color="#461698"/>
    </linearGradient>
    <linearGradient id="linear-gradient-2" x1="1.242" y1="-0.447" x2="0.028" y2="0.718" gradientUnits="objectBoundingBox">
      <stop offset="0" stop-color="#64b5f6"/>
      <stop offset="1" stop-color="#461698"/>
    </linearGradient>
    <clipPath id="clip-path">
      <path id="Rectangle_652" data-name="Rectangle 652" d="M1299.213,0H20.787C9.307,0,0,8.4,0,18.772V488.063c0,10.367,9.307,18.772,20.787,18.772H1299.213c11.48,0,20.787-8.4,20.787-18.772V18.772C1320,8.4,1310.693,0,1299.213,0Z" transform="translate(300 300)" fill="url(#linear-gradient)"/>
    </clipPath>
    <linearGradient id="linear-gradient-3" x1="0.5" y1="0" x2="0.5" y2="1" xlink:href="#linear-gradient"/>
    <linearGradient id="linear-gradient-5" x1="0.106" y1="0.024" x2="0.5" y2="1" xlink:href="#linear-gradient"/>
    <linearGradient id="linear-gradient-6" x1="0.894" y1="0.024" x2="0.5" y2="1" xlink:href="#linear-gradient"/>
  </defs>
  <g id="fondo-banner-principal" transform="translate(-140 -70)">
    <path id="Rectangle_652-2" data-name="Rectangle 652" d="M1299.213,0H20.787C9.307,0,0,8.4,0,18.772V488.063c0,10.367,9.307,18.772,20.787,18.772H1299.213c11.48,0,20.787-8.4,20.787-18.772V18.772C1320,8.4,1310.693,0,1299.213,0Z" transform="translate(140 70)" fill="url(#linear-gradient-2)"/>
    <g id="Mask_Group_45" data-name="Mask Group 45" transform="translate(-160 -230)" clip-path="url(#clip-path)">
      <path id="Trazado_99333" data-name="Trazado 99333" d="M685.778,174.35c-282,0-511.428,229.425-511.428,511.428s229.425,511.427,511.428,511.427,511.427-229.425,511.427-511.427S967.78,174.35,685.778,174.35m0-174.35c378.745,0,685.778,307.033,685.778,685.778s-307.033,685.778-685.778,685.778S0,1064.522,0,685.778,307.033,0,685.778,0Z" transform="translate(1028.222 -551.41)" fill="url(#linear-gradient-3)"/>
      <path id="Path_113153" data-name="Path 113153" d="M402,0C624.018,0,804,179.982,804,402S624.018,804,402,804,0,624.018,0,402,179.982,0,402,0Z" transform="translate(960 470)" opacity="0.444" fill="url(#linear-gradient-3)" style="mix-blend-mode: multiply;isolation: isolate"/>
      <path id="Elipse_4044" data-name="Elipse 4044" d="M212.984,57.563c-85.7,0-155.421,69.722-155.421,155.421s69.722,155.421,155.421,155.421,155.421-69.722,155.421-155.421S298.684,57.563,212.984,57.563m0-57.563C330.612,0,425.969,95.356,425.969,212.984S330.612,425.969,212.984,425.969,0,330.612,0,212.984,95.356,0,212.984,0Z" transform="translate(50.016 702.434)" fill="url(#linear-gradient-5)"/>
      <path id="Elipse_4044-2" data-name="Elipse 4044" d="M95.945,25.931A70.014,70.014,0,1,1,25.931,95.945,70.093,70.093,0,0,1,95.945,25.931M95.945,0a95.945,95.945,0,1,0,95.945,95.945A95.945,95.945,0,0,0,95.945,0Z" transform="translate(173.055 644.49)" fill="url(#linear-gradient-6)"/>
      <path id="Ellipse_4691" data-name="Ellipse 4691" d="M501.5,2a507.512,507.512,0,0,0-51.073,2.579,500.736,500.736,0,0,0-49.6,7.569c-16.092,3.293-32.2,7.434-47.868,12.308-15.5,4.82-30.935,10.471-45.891,16.8C292.256,47.519,277.565,54.6,263.41,62.286c-14.055,7.635-27.911,16.053-41.184,25.02-13.209,8.924-26.146,18.6-38.454,28.755C171.495,126.193,159.56,137.04,148.3,148.3s-22.107,23.195-32.239,35.472C105.9,196.08,96.229,209.018,87.305,222.226c-8.967,13.273-17.385,27.129-25.02,41.184-7.69,14.155-14.766,28.846-21.033,43.663-6.326,14.955-11.977,30.395-16.8,45.891-4.874,15.671-9.015,31.776-12.308,47.868a500.736,500.736,0,0,0-7.569,49.6,507.011,507.011,0,0,0,0,102.147,500.741,500.741,0,0,0,7.569,49.6c3.293,16.092,7.434,32.2,12.308,47.868,4.82,15.5,10.471,30.936,16.8,45.891,6.267,14.817,13.344,29.507,21.033,43.663,7.635,14.055,16.053,27.911,25.02,41.184,8.924,13.209,18.6,26.146,28.755,38.454C126.193,831.5,137.04,843.44,148.3,854.7s23.195,22.107,35.472,32.239c12.307,10.157,25.245,19.832,38.454,28.755,13.273,8.967,27.129,17.385,41.184,25.02,14.155,7.69,28.846,14.766,43.663,21.033,14.955,6.326,30.395,11.977,45.891,16.8,15.671,4.874,31.776,9.015,47.868,12.308a500.736,500.736,0,0,0,49.6,7.569,507.011,507.011,0,0,0,102.147,0,500.741,500.741,0,0,0,49.6-7.569c16.092-3.293,32.2-7.434,47.868-12.308,15.5-4.82,30.936-10.471,45.891-16.8,14.817-6.267,29.507-13.344,43.663-21.033,14.055-7.635,27.911-16.053,41.184-25.02,13.209-8.924,26.146-18.6,38.454-28.755C831.5,876.807,843.44,865.96,854.7,854.7s22.107-23.2,32.239-35.472c10.157-12.307,19.832-25.245,28.755-38.454,8.967-13.273,17.385-27.129,25.02-41.184,7.69-14.155,14.766-28.846,21.033-43.663,6.326-14.955,11.977-30.395,16.8-45.891,4.874-15.671,9.015-31.776,12.308-47.868a500.741,500.741,0,0,0,7.569-49.6,507.011,507.011,0,0,0,0-102.147,500.736,500.736,0,0,0-7.569-49.6c-3.293-16.092-7.434-32.2-12.308-47.868-4.82-15.5-10.471-30.935-16.8-45.891-6.267-14.817-13.344-29.507-21.033-43.663-7.635-14.055-16.053-27.911-25.02-41.184-8.924-13.209-18.6-26.146-28.755-38.454C876.807,171.495,865.96,159.56,854.7,148.3s-23.2-22.107-35.472-32.239C806.92,105.9,793.982,96.229,780.774,87.305c-13.273-8.967-27.129-17.385-41.184-25.02-14.155-7.69-28.846-14.766-43.663-21.033-14.955-6.326-30.395-11.977-45.891-16.8-15.671-4.874-31.776-9.015-47.868-12.308a500.741,500.741,0,0,0-49.6-7.569A507.512,507.512,0,0,0,501.5,2m0-2C778.471,0,1003,224.529,1003,501.5S778.471,1003,501.5,1003,0,778.471,0,501.5,224.529,0,501.5,0Z" transform="translate(1220 -378)" fill="#fff"/>
    </g>
  </g>
</svg>
