<svg id="t2-ic1" xmlns="http://www.w3.org/2000/svg" xmlns:xlink="http://www.w3.org/1999/xlink" width="137.225" height="120" viewBox="0 0 137.225 120">
  <defs>
    <clipPath id="clip-path">
      <rect id="Rectangle_36544" data-name="Rectangle 36544" width="137.225" height="120" fill="none"/>
    </clipPath>
  </defs>
  <g id="Group_111588" data-name="Group 111588" clip-path="url(#clip-path)">
    <path id="Path_172424" data-name="Path 172424" d="M269.689,72.935l8.577-4.02s4.824,9.113,29.214,6.164l2.154,5.322s5.886-.23,5.886,4.595a4.723,4.723,0,0,1-4.288,5.092s-4.9,16.306-20.676,15.658-17.919-15.658-17.919-15.658l-4.48-.552-.649-6.034,3.234-3.331-1.662-5.858Z" transform="translate(-195.812 -50.445)" fill="#c39772"/>
    <path id="Path_172425" data-name="Path 172425" d="M280.643,35.715l5.858-5.7s11.257,4.02,23.318.8l3.226,6.164H317.4l.8-12.061S315.715,8.035,296.418,8.839l-17.383,4.826s-11.33,1.874-4.88,22.511L279,38.321Z" transform="translate(-199.223 -6.45)" fill="#5c414b"/>
    <path id="Path_172426" data-name="Path 172426" d="M6.891,308.87H73.3v-31.7L69.908,271.9l-9.534-4.1-7.619-6.892L40.962,271.367,28.327,260.914,22.3,265.42l-9.208,5.411-6.2,4.442-.962,8.057Z" transform="translate(-4.34 -190.985)" fill="#64b5f6"/>
    <path id="Path_172427" data-name="Path 172427" d="M190.643,232.558l12.865-4.508,13.665-5.579,3.054-5.056,15.844,13.5,13.8-12.834,6.432,5.9,15.277,5.9,2.68,4.556-.976,42.6H208.5v-31.7l-3.389-5.265-9.649-5.36Z" transform="translate(-139.547 -159.144)" fill="#64b5f6"/>
    <path id="Path_172428" data-name="Path 172428" d="M98.753,260.915c.077,0,6.2,4.505,6.2,4.505L97.49,278.068l-7.773-5.092-10.032,5.092L71.071,265.42,76.7,261.26l11.314,8.7,9.476-9.044Z" transform="translate(-52.023 -190.985)" fill="#b0dcff"/>
    <path id="Path_172429" data-name="Path 172429" d="M223.045,344.063,224.531,315l-2.749-6.088-4.556,3.752-5.153,8.309-.858,23.088Z" transform="translate(-154.605 -226.12)" fill="#b0dcff"/>
    <path id="Path_172430" data-name="Path 172430" d="M15.454,344.063l-7.308-.057-.5-32.143,2.987-2.948,3.561,2.066,6.585,10.8.536,18.493v3.791Z" transform="translate(-5.594 -226.12)" fill="#b0dcff"/>
    <path id="Path_172431" data-name="Path 172431" d="M315.241,217.415l6.432,6.03-10.784,14.672-9.719-7.2-9.591,7.2-12-14.547,7.292-6.156,13.756,11.659Z" transform="translate(-204.645 -159.144)" fill="#b0dcff"/>
    <path id="Path_172432" data-name="Path 172432" d="M341.246,271.629l3.933,4.748,1.838,40.394H335.072l2.972-42.155Z" transform="translate(-245.267 -198.828)" fill="#fff505"/>
    <path id="Path_172433" data-name="Path 172433" d="M351.053,279.784H344.8l.365-6.369,3.2-1.787,3.627,2.757Z" transform="translate(-252.388 -198.827)" fill="#ccc405"/>
    <path id="Path_172434" data-name="Path 172434" d="M99.4,236.279l-.752,7.407,8.835,9.189,10.194-9.993-.459-6.6s-10.365,3.85-17.818,0" transform="translate(-72.205 -172.952)" fill="#fad7a5"/>
    <path id="Path_172435" data-name="Path 172435" d="M47.047,125.356s2.74,15.124,18.791,15.124,19.267-15.66,19.267-15.66a5.4,5.4,0,0,0,5.092-5.628c0-5.36-5.207-4.036-5.207-4.036l-7.39-2.129s-13.133,2.144-24.926-9.113l-9.282,8.309,1.165,2.933a3.258,3.258,0,0,0-3.588,3.588c0,3.932,6.076,6.613,6.076,6.613" transform="translate(-29.99 -76.064)" fill="#ffe1b4"/>
    <path id="Path_172436" data-name="Path 172436" d="M56.22,137.832s-1.1,19.393,9.634,26.191v1.838s-15.339-2.469-16.641-16.176c0,0-5.59-.306-4.786-5.934,0,0,1.608-4.319,3.752-3.768l4.556,1.088Z" transform="translate(-32.462 -100.891)" fill="#fad7a5"/>
    <path id="Path_172437" data-name="Path 172437" d="M59.823,41.323l3.174-4s9.419,6.159,25.347,4.572l2.067,2.151H94.13s3.4-19.3-10.381-26.261c0,0-.323-11.017-11.342-11.017S60.853,18.335,60.853,18.335s-14.359,6.251-10.128,24.7l5.686,1.013Z" transform="translate(-36.559 -4.957)" fill="#d59f63"/>
    <path id="Path_172438" data-name="Path 172438" d="M57.027,59.32c-3.914,3.306-9.061,10.149-6.3,22.181l5.686,1.013,3.412-2.726,3.174-4c-.28-8.837-3.222-13.772-5.97-16.47" transform="translate(-36.559 -43.421)" fill="#cd915a"/>
    <path id="Path_172439" data-name="Path 172439" d="M309.643,191.675v6.968l12.99,11.833,13.352-12.063v-8.291s-14.282,11.737-26.342,1.553" transform="translate(-226.653 -139.166)" fill="#b48764"/>
    <path id="Path_172440" data-name="Path 172440" d="M283.492,39c-7.566-6.325-2.963-13.238-2.963-13.238l.038-.425-1.531.425s-11.33,1.874-4.88,22.511L279,50.417l1.646-2.605,5.858-5.7s.782.28,2.154.632Z" transform="translate(-199.223 -18.546)" fill="#503441"/>
    <path id="Path_172441" data-name="Path 172441" d="M282.477,89.75s-5.008,26.841,9.005,30.462v2.07s-18.693-1.92-18.823-16.266c0,0-5.83-.715-5.258-4.85a6.748,6.748,0,0,1,3.75-5.4l4.327,1.8,1.415-3.293Z" transform="translate(-195.704 -65.695)" fill="#b48764"/>
    <path id="Path_172442" data-name="Path 172442" d="M25.373,5A13.386,13.386,0,0,1,34.526.143,13.594,13.594,0,0,1,44.55,3.179a12.713,12.713,0,0,1,4.6,9.413,24.885,24.885,0,0,1,8.791,9.6,23.134,23.134,0,0,1,1.809,15.845,6.329,6.329,0,0,1,2.415,3.779c.386,2.332.241,5.028-1.479,6.832a5.884,5.884,0,0,1-4.393,1.847,21.025,21.025,0,0,1-9.013,13.487c-.011,1.029-.013,2.061-.005,3.09,1.635.587,2.605,2.107,3.846,3.224C52.4,71.43,53.384,73,55.053,73.609c2.921,1.254,5.84,2.514,8.74,3.814a13.469,13.469,0,0,1,7.488,8.893c.681,2.541.338,5.189.26,7.781-.324,7.762-.667,15.524-.981,23.288a2.9,2.9,0,0,1-.67,2.1,1.992,1.992,0,0,1-2.908-.163,2.71,2.71,0,0,1-.453-1.919c.389-8.933.75-17.871,1.139-26.807a10.263,10.263,0,0,0-1.233-5.7c-1.461,1.707-2.879,3.452-4.328,5.17a15.462,15.462,0,0,0-2.653,4,12.624,12.624,0,0,0-.9,5.116c.008,6.073,0,12.149.008,18.223a2.517,2.517,0,0,1-.831,2.243,1.989,1.989,0,0,1-3.05-.914,11.264,11.264,0,0,1-.15-2.669c.016-5.714-.005-11.428.008-17.14a16.163,16.163,0,0,1,1.305-6.612,19.164,19.164,0,0,1,3.074-4.7c1.584-1.89,3.155-3.79,4.741-5.679-3.219-1.82-6.73-3.045-10.077-4.6q-2.891,4.68-5.77,9.373a4.566,4.566,0,0,1-2.048,1.959,4,4,0,0,1-4.071-.63C40.388,87,39.16,85.865,37.876,84.8q0,16.3,0,32.6a2.538,2.538,0,0,1-.815,2.241,1.988,1.988,0,0,1-2.964-.675,8,8,0,0,1-.252-2.892q.016-15.631,0-31.264c-1.324,1.085-2.568,2.265-3.926,3.3a3.945,3.945,0,0,1-4.1.5,5.665,5.665,0,0,1-2.3-2.514c-1.782-2.927-3.591-5.837-5.379-8.759-3.356,1.541-6.856,2.8-10.091,4.583,1.479,1.772,2.951,3.549,4.433,5.315a20.156,20.156,0,0,1,3.423,5.151,16.726,16.726,0,0,1,1.278,6.781q0,9.118,0,18.236a2.686,2.686,0,0,1-.641,2.082,2,2,0,0,1-2.913-.169,3.442,3.442,0,0,1-.48-2.192c.021-5.808,0-11.613.013-17.418a15.012,15.012,0,0,0-.512-4.546,12.509,12.509,0,0,0-2.541-4.487C8.507,88.747,6.9,86.814,5.288,84.89,3.763,87.436,3.98,90.459,4.17,93.295c.338,8.126.7,16.25,1.029,24.376a2.083,2.083,0,0,1-1.694,2.351,2.043,2.043,0,0,1-2.308-2.08C.767,108.88.472,99.81,0,90.751V89.623a13.553,13.553,0,0,1,4-9.5,14.657,14.657,0,0,1,4.685-3.05c2.377-1.029,4.747-2.072,7.124-3.1a7.353,7.353,0,0,0,2.568-1.439c1.423-1.442,2.857-2.87,4.28-4.307a10.1,10.1,0,0,1,1.739-1.222,27.306,27.306,0,0,0,.054-3A21.163,21.163,0,0,1,15.43,50.5a5.9,5.9,0,0,1-4.479-1.94c-1.654-1.8-1.761-4.428-1.4-6.717a6.341,6.341,0,0,1,2.412-3.825,23.164,23.164,0,0,1,.643-13.082,24.133,24.133,0,0,1,9.943-12.307A12.855,12.855,0,0,1,25.373,5m6.746-.19A9.106,9.106,0,0,0,26.9,10.456a26,26,0,0,1,17.906.013,9.056,9.056,0,0,0-2.115-3.578A9.712,9.712,0,0,0,32.119,4.809m-5.047,9.965A20.081,20.081,0,0,0,16.582,25.72a18.808,18.808,0,0,0-.678,11.4,7.755,7.755,0,0,1,3.039,1.324c.981-.911,1.758-2.533,3.3-2.415a1.991,1.991,0,0,1,1.5,3.015,14.224,14.224,0,0,1-3.372,3.334,2.679,2.679,0,0,1-3.337-.182c-.536-.432-1.008-1.1-1.78-1.061a1.725,1.725,0,0,0-1.8,1.737c-.086,1.187-.214,2.82,1.061,3.436,1.257.214,2.68.2,3.626,1.219,1.254,1.032,1.27,2.744,1.742,4.173a16.73,16.73,0,0,0,26.26,8.126,17.037,17.037,0,0,0,6.172-10,4.111,4.111,0,0,1,2.653-3.147c.785-.316,1.7-.091,2.458-.493.978-.659.909-1.981.874-3.021a1.978,1.978,0,0,0-1.335-2.013c-1.069-.225-2.058.343-3.093.48-1.873-.027-2.643-2.6-4.554-2.356a50.328,50.328,0,0,1-11.549-1C31.9,37.049,26.126,34.481,22,30.029c-.539-.622-1.268-1.241-1.292-2.128a1.989,1.989,0,0,1,2.1-2.074c.954.029,1.565.86,2.174,1.482a22.947,22.947,0,0,0,9.244,5.805,43,43,0,0,0,15.108,2.139,5.432,5.432,0,0,1,2.487.295A13.8,13.8,0,0,1,54.3,37.365q.768-.137,1.541-.271A18.946,18.946,0,0,0,53.36,22.235,20.5,20.5,0,0,0,41.8,13.723a21.42,21.42,0,0,0-14.73,1.051m1.4,51.28c-.008,1.375,0,2.755-.011,4.133,2.458,2.485,4.937,4.948,7.408,7.416q3.683-3.707,7.381-7.392c0-1.386,0-2.771,0-4.154a21.181,21.181,0,0,1-14.778,0M21.484,75.1c2.015,3.27,4.02,6.545,6.041,9.815q2.686-2.3,5.371-4.583c-2.755-2.785-5.548-5.532-8.3-8.322-1.067,1-2.077,2.058-3.114,3.09m17.343,5.2c1.761,1.571,3.581,3.074,5.368,4.613q3.027-4.9,6.049-9.812Q48.7,73.547,47.15,72c-2.782,2.755-5.529,5.551-8.322,8.3" transform="translate(0 -0.053)"/>
    <path id="Path_172443" data-name="Path 172443" d="M244.1,4.126A28.338,28.338,0,0,1,259.21,0c5.358-.043,10.943,1.021,15.376,4.184A19.02,19.02,0,0,1,282,15.509c1.174,4.709.836,9.627.083,14.374a6.281,6.281,0,0,1,1.643,3.27c.314,2.286.158,4.913-1.546,6.655a6,6,0,0,1-4.382,1.839,21.825,21.825,0,0,1-5.253,10.324c.038,1.429-.083,2.862.048,4.286,1.782.917,2.97,2.578,4.417,3.91,1.083.97,1.922,2.329,3.369,2.8,3.171,1.2,6.331,2.428,9.493,3.648a14.083,14.083,0,0,1,4.953,3.071,13.462,13.462,0,0,1,4.052,9.434V80c-.552,12.533-1.029,25.068-1.544,37.6a2.44,2.44,0,0,1-.8,1.948,2,2,0,0,1-2.889-.442,2.968,2.968,0,0,1-.338-1.75q.7-17.03,1.386-34.057a26.514,26.514,0,0,0-.139-6.55c-2.082,2.058-4.17,4.109-6.207,6.21a9.553,9.553,0,0,0-2.635,6.773q-.008,13.81,0,27.619a2.788,2.788,0,0,1-.6,2.042,2.01,2.01,0,0,1-2.929-.107,3.313,3.313,0,0,1-.507-2.2c.035-9.206-.024-18.415.029-27.619a13.52,13.52,0,0,1,3.674-9.2c2.321-2.468,4.811-4.773,7.14-7.231a11.38,11.38,0,0,0-4.607-2.881c-3.055-1.166-6.1-2.348-9.155-3.519-2.554,3.809-5.082,7.636-7.636,11.442a6.026,6.026,0,0,1-3.549,2.581,6.4,6.4,0,0,1-4.227-.523c.565,12.409,1.094,24.821,1.651,37.23a2.287,2.287,0,0,1-1.171,2.447,2.017,2.017,0,0,1-2.814-1.809c-.552-11.667-1.029-23.342-1.557-35.011q-2.083,0-4.168,0-.772,17.319-1.53,34.641a2.348,2.348,0,0,1-.855,1.967,2,2,0,0,1-2.769-.407,3.3,3.3,0,0,1-.389-2.112c.568-12.315,1.077-24.631,1.646-36.944a8.078,8.078,0,0,1-2.627.683,5.844,5.844,0,0,1-5.047-2.6c-2.611-3.849-5.141-7.751-7.759-11.594-3.369,1.345-6.784,2.573-10.142,3.945-1.214.461-2.407,1.7-3.787,1.1a1.976,1.976,0,0,1-.659-3.152,11.642,11.642,0,0,1,3.645-1.973c3.168-1.214,6.328-2.452,9.5-3.656a3.827,3.827,0,0,0,1.445-.946c1.512-1.53,3.037-3.047,4.554-4.575a5.124,5.124,0,0,1,1.68-1.051c-.013-1.281.038-2.565,0-3.846.043-.606-.442-1.032-.775-1.474a20.973,20.973,0,0,1-4.481-9.362,5.882,5.882,0,0,1-5.1-2.782,8.816,8.816,0,0,1-.7-6.2,6.356,6.356,0,0,1,3.055-3.929,49.771,49.771,0,0,1-1.372-10.809,14.632,14.632,0,0,1,1.021-6.333,9.655,9.655,0,0,1,7.025-5.644c1.278-.182,2.174-1.177,3.23-1.814m.07,4.894c-1.118.978-2.763.595-3.991,1.362-2.214,1.08-3.251,3.6-3.31,5.955a45.145,45.145,0,0,0,1.383,12.055,10.8,10.8,0,0,1,2.2,1.174,27.266,27.266,0,0,1,2.013-2.077,1.97,1.97,0,0,1,2.87.611,2,2,0,0,1-.209,2.289,14.512,14.512,0,0,1-3.431,3.246,2.759,2.759,0,0,1-3.473-.6,1.839,1.839,0,0,0-2.627-.378c-.8.75-.667,1.946-.641,2.94a1.861,1.861,0,0,0,1.756,1.97A4.215,4.215,0,0,1,240,39.014c.9.943.935,2.316,1.305,3.5a16.933,16.933,0,0,0,6.561,8.995,17.188,17.188,0,0,0,7.041,2.822,16.831,16.831,0,0,0,12.559-3.219,17.009,17.009,0,0,0,6.376-10.166,4.045,4.045,0,0,1,3.591-3.318c.606-.075,1.329-.013,1.772-.523.812-.82.63-2.085.59-3.133a1.8,1.8,0,0,0-2.042-1.713c-1.348.209-2.937.308-3.945-.8-1.1-1.308-1.466-3.045-2.192-4.562a45.2,45.2,0,0,1-16.153.365c-4.915-.876-9.793-3.157-12.881-7.2a1.987,1.987,0,0,1,1.4-3.09c.976-.163,1.71.6,2.3,1.249a15.768,15.768,0,0,0,7.349,4.46c4.846,1.437,10,1.286,14.961.627,1.364-.158,2.686-.557,4.05-.7a1.975,1.975,0,0,1,2.04,1.257c.651,1.469,1.254,2.962,1.855,4.454.582-.032,1.163-.072,1.745-.113a34.215,34.215,0,0,0,.287-9.225A16.257,16.257,0,0,0,273.214,8.2c-3.854-3.248-9.083-4.227-14-4.186a23.867,23.867,0,0,0-15.044,5M246.227,55.3q0,1.93,0,3.854,5.572,4.873,11.136,9.75c3.741-3.235,7.454-6.507,11.168-9.772-.011-1.27,0-2.538-.011-3.806a21.679,21.679,0,0,1-9.332,3.1A21.049,21.049,0,0,1,246.227,55.3m-6.944,9.016q3.819,5.733,7.638,11.463a1.917,1.917,0,0,0,1.573,1.032c.793.094,1.353-.544,1.865-1.043,1.348-1.38,2.739-2.715,4.074-4.109-4.018-3.484-8-7-12.015-10.493-1.043,1.051-2.093,2.1-3.136,3.149m21.039,7.362c1.538,1.522,3.05,3.077,4.6,4.588a1.77,1.77,0,0,0,2.787-.306c2.6-3.876,5.178-7.767,7.77-11.645q-1.572-1.576-3.147-3.149-6.01,5.254-12.01,10.512m-4.73,4.524q-.064,1.383-.118,2.769c1.273,0,2.546.005,3.819-.008-.043-.93-.086-1.863-.145-2.793-.6-.582-1.185-1.166-1.785-1.737q-.88.888-1.772,1.769" transform="translate(-161.657 0)"/>
    <path id="Path_172444" data-name="Path 172444" d="M280.623,329.719c1.41-.5,2.954-.161,4.42-.255,1.431.029,2.868-.075,4.3.051a1.986,1.986,0,0,1,1.584,2.712,2.119,2.119,0,0,1-2.107,1.252c-2.243.019-4.484,0-6.727.008a2.433,2.433,0,0,1-2.082-.775,2,2,0,0,1,.616-2.994" transform="translate(-204.645 -241.143)"/>
    <path id="Path_172445" data-name="Path 172445" d="M78.588,362.716a33.934,33.934,0,0,1,4.787-.147c1.035.035,2.332-.193,3.063.729a1.99,1.99,0,0,1-1.091,3.216c-1.533.188-3.09.029-4.631.086-1.008-.013-2.249.147-2.959-.742a2.007,2.007,0,0,1,.831-3.141" transform="translate(-56.584 -265.384)"/>
  </g>
</svg>
